<?xml version="1.0" standalone="yes"?>

<svg version="1.1" viewBox="0.0 0.0 40.0 50.0" fill="none" stroke="none" stroke-linecap="square" stroke-miterlimit="10" xmlns="http://www.w3.org/2000/svg" xmlns:xlink="http://www.w3.org/1999/xlink"><clipPath id="p.0"><path d="m0 0l40.0 0l0 50.0l-40.0 0l0 -50.0z" clip-rule="nonzero"></path></clipPath><g clip-path="url(#p.0)"><path fill="#000000" fill-opacity="0.0" d="m0 0l40.0 0l0 50.0l-40.0 0z" fill-rule="nonzero"></path><path fill="#fe2e2e" d="m1.136483 7.1497316l0 0c0 -3.4674315 2.8109088 -6.2783403 6.2783403 -6.2783403l25.112612 0l0 0c1.6651192 0 3.2620392 0.6614661 4.439457 1.8388834c1.1774178 1.1774173 1.8388824 2.774338 1.8388824 4.439457l0 26.372452c0 3.467434 -2.8109093 6.278343 -6.2783394 6.278343l-25.112612 0c-3.4674318 0 -6.2783403 -2.8109093 -6.2783403 -6.278343z" fill-rule="nonzero"></path><path stroke="#000000" stroke-width="2.0" stroke-linejoin="round" stroke-linecap="butt" d="m1.136483 7.1497316l0 0c0 -3.4674315 2.8109088 -6.2783403 6.2783403 -6.2783403l25.112612 0l0 0c1.6651192 0 3.2620392 0.6614661 4.439457 1.8388834c1.1774178 1.1774173 1.8388824 2.774338 1.8388824 4.439457l0 26.372452c0 3.467434 -2.8109093 6.278343 -6.2783394 6.278343l-25.112612 0c-3.4674318 0 -6.2783403 -2.8109093 -6.2783403 -6.278343z" fill-rule="nonzero"></path><path fill="#ffffff" d="m31.285717 14.553847l0 0c0 -1.3133068 1.1704063 -2.3779526 2.614174 -2.3779526l0 0c1.4437675 0 2.614174 1.0646458 2.614174 2.3779526l0 0c0 1.3133078 -1.1704063 2.3779535 -2.614174 2.3779535l0 0c-1.4437675 0 -2.614174 -1.0646458 -2.614174 -2.3779535z" fill-rule="nonzero"></path><path fill="#ffffff" d="m30.960579 18.500532l0 0c0 -0.51895523 0.42069626 -0.9396515 0.9396515 -0.9396515l3.7584915 0l0 0c0.24921417 0 0.4882164 0.09899902 0.66443634 0.27521706c0.17621613 0.17621994 0.27521515 0.41522408 0.27521515 0.66443443l0 6.057705c0 0.51895523 -0.42069626 0.9396515 -0.9396515 0.9396515l-3.7584915 0c-0.51895523 0 -0.9396515 -0.42069626 -0.9396515 -0.9396515z" fill-rule="nonzero"></path><path fill="#ffffff" d="m13.455419 23.490921l0 0c0 -1.3133068 1.1704054 -2.3779526 2.614173 -2.3779526l0 0c1.4437675 0 2.614174 1.0646458 2.614174 2.3779526l0 0c0 1.3133068 -1.1704063 2.3779526 -2.614174 2.3779526l0 0c-1.4437675 0 -2.614173 -1.0646458 -2.614173 -2.3779526z" fill-rule="nonzero"></path><path fill="#ffffff" d="m13.1302805 27.437607l0 0c0 -0.51895523 0.42069626 -0.9396515 0.9396515 -0.9396515l3.7584925 0l0 0c0.24921036 0 0.4882145 0.098997116 0.66443443 0.27521706c0.17621803 0.17621803 0.27521706 0.41522217 0.27521706 0.66443443l0 6.057705c0 0.51895523 -0.42069626 0.9396515 -0.9396515 0.9396515l-3.7584925 0c-0.51895523 0 -0.9396515 -0.42069626 -0.9396515 -0.9396515z" fill-rule="nonzero"></path><path fill="#ffffff" d="m3.7214634 14.519721l0 0c0 -1.3133078 1.1704051 -2.3779526 2.6141732 -2.3779526l0 0c1.443768 0 2.6141734 1.0646448 2.6141734 2.3779526l0 0c0 1.3133068 -1.1704054 2.3779516 -2.6141734 2.3779516l0 0c-1.443768 0 -2.6141732 -1.0646448 -2.6141732 -2.3779516z" fill-rule="nonzero"></path><path fill="#ffffff" d="m3.3963253 18.466406l0 0c0 -0.51895523 0.42069626 -0.9396515 0.93965125 -0.9396515l3.7584925 0l0 0c0.24921131 0 0.48821545 0.09899902 0.66443443 0.27521706c0.17621899 0.17621803 0.27521706 0.41522217 0.27521706 0.66443443l0 6.057705c0 0.51895523 -0.42069626 0.9396515 -0.9396515 0.9396515l-3.7584925 0c-0.518955 0 -0.93965125 -0.42069626 -0.93965125 -0.9396515z" fill-rule="nonzero"></path><path fill="#434343" d="m21.546635 6.5748034l0 0c0 -1.3133073 1.1704044 -2.377953 2.614174 -2.377953l0 0c1.4437675 0 2.614172 1.0646458 2.614172 2.377953l0 0c0 1.3133068 -1.1704044 2.3779526 -2.614172 2.3779526l0 0c-1.4437695 0 -2.614174 -1.0646458 -2.614174 -2.3779526z" fill-rule="nonzero"></path><path fill="#434343" d="m21.221497 10.521488l0 0c0 -0.51895523 0.42069626 -0.9396515 0.9396515 -0.9396515l3.7584915 0l0 0c0.24921227 0 0.4882145 0.09899807 0.66443443 0.27521706c0.17621803 0.17621899 0.27521706 0.41522312 0.27521706 0.66443443l0 6.057705c0 0.51895523 -0.42069626 0.9396515 -0.9396515 0.9396515l-3.7584915 0c-0.51895523 0 -0.9396515 -0.42069626 -0.9396515 -0.9396515z" fill-rule="nonzero"></path><path fill="#ffffff" d="m11.33736 22.932291l3.7833185 -8.254185l15.133271 0l-3.7833176 8.254185z" fill-rule="nonzero"></path><path fill="#000000" d="m19.982952 49.999897l-8.094488 -8.125984l16.220472 0.031497955z" fill-rule="nonzero"></path></g></svg>

