<?xml version="1.0" standalone="yes"?>

<svg version="1.1" viewBox="0.0 0.0 40.0 50.0" fill="none" stroke="none" stroke-linecap="square" stroke-miterlimit="10" xmlns="http://www.w3.org/2000/svg" xmlns:xlink="http://www.w3.org/1999/xlink"><clipPath id="p.0"><path d="m0 0l40.0 0l0 50.0l-40.0 0l0 -50.0z" clip-rule="nonzero"></path></clipPath><g clip-path="url(#p.0)"><path fill="#000000" fill-opacity="0.0" d="m0 0l40.0 0l0 50.0l-40.0 0z" fill-rule="nonzero"></path><path fill="#ffff00" d="m1.136483 7.1497316l0 0c0 -3.4674315 2.8109088 -6.2783403 6.2783403 -6.2783403l25.112612 0l0 0c1.6651192 0 3.2620392 0.6614661 4.439457 1.8388834c1.1774178 1.1774173 1.8388824 2.774338 1.8388824 4.439457l0 26.372452c0 3.467434 -2.8109093 6.278343 -6.2783394 6.278343l-25.112612 0c-3.4674318 0 -6.2783403 -2.8109093 -6.2783403 -6.278343z" fill-rule="nonzero"></path><path stroke="#1c4587" stroke-width="2.0" stroke-linejoin="round" stroke-linecap="butt" d="m1.136483 7.1497316l0 0c0 -3.4674315 2.8109088 -6.2783403 6.2783403 -6.2783403l25.112612 0l0 0c1.6651192 0 3.2620392 0.6614661 4.439457 1.8388834c1.1774178 1.1774173 1.8388824 2.774338 1.8388824 4.439457l0 26.372452c0 3.467434 -2.8109093 6.278343 -6.2783394 6.278343l-25.112612 0c-3.4674318 0 -6.2783403 -2.8109093 -6.2783403 -6.278343z" fill-rule="nonzero"></path><path fill="#1c4587" d="m3.4129772 21.360104l0 0c-0.017502308 -2.6968536 1.0087261 -5.2894573 2.8510933 -7.202836c1.8423672 -1.9133787 4.3485937 -2.9893837 6.96286 -2.9893837l0 10.124438z" fill-rule="nonzero"></path><path fill="#ffff00" d="m4.889685 19.42086l0 0c-0.01555872 -1.7369385 0.7593336 -3.4074383 2.1525822 -4.640498c1.393249 -1.2330599 3.289515 -1.9266043 5.2676606 -1.9266043l0 6.515854z" fill-rule="nonzero"></path><path fill="#1c4587" d="m3.4127572 21.541399l0 0c0 -0.70658875 0.5728042 -1.2793941 1.2793939 -1.2793941l7.2679834 0c0.33931637 0 0.6647358 0.13479424 0.9046688 0.37472725c0.23993301 0.2399311 0.37472534 0.5653515 0.37472534 0.9046669l0 5.117424c0 0.70658875 -0.57280445 1.2793941 -1.2793941 1.2793941l-7.2679834 0l0 0c-0.7065897 0 -1.2793939 -0.5728054 -1.2793939 -1.2793941z" fill-rule="nonzero"></path><path fill="#1c4587" d="m12.061647 23.804943l23.332285 0l0 4.156885l-23.332285 0z" fill-rule="nonzero"></path><path fill="#1c4587" d="m4.7814045 28.026749l0 0c0 -2.0352192 1.5906234 -3.685091 3.5527563 -3.685091l0 0c0.9422493 0 1.8459063 0.38825035 2.5121775 1.0793381c0.6662712 0.69108963 1.0405779 1.6284065 1.0405779 2.605753l0 0c0 2.035221 -1.5906229 3.685093 -3.5527554 3.685093l0 0c-1.9621329 0 -3.5527563 -1.6498718 -3.5527563 -3.685093z" fill-rule="nonzero"></path><path stroke="#ffff00" stroke-width="1.0" stroke-linejoin="round" stroke-linecap="butt" d="m4.7814045 28.026749l0 0c0 -2.0352192 1.5906234 -3.685091 3.5527563 -3.685091l0 0c0.9422493 0 1.8459063 0.38825035 2.5121775 1.0793381c0.6662712 0.69108963 1.0405779 1.6284065 1.0405779 2.605753l0 0c0 2.035221 -1.5906229 3.685093 -3.5527554 3.685093l0 0c-1.9621329 0 -3.5527563 -1.6498718 -3.5527563 -3.685093z" fill-rule="nonzero"></path><path fill="#1c4587" d="m26.021849 28.026749l0 0c0 -2.0352192 1.5906239 -3.685091 3.5527554 -3.685091l0 0c0.9422493 0 1.8459072 0.38825035 2.5121803 1.0793381c0.6662674 0.69108963 1.0405769 1.6284065 1.0405769 2.605753l0 0c0 2.035221 -1.5906239 3.685093 -3.5527573 3.685093l0 0c-1.9621315 0 -3.5527554 -1.6498718 -3.5527554 -3.685093z" fill-rule="nonzero"></path><path stroke="#ffff00" stroke-width="1.0" stroke-linejoin="round" stroke-linecap="butt" d="m26.021849 28.026749l0 0c0 -2.0352192 1.5906239 -3.685091 3.5527554 -3.685091l0 0c0.9422493 0 1.8459072 0.38825035 2.5121803 1.0793381c0.6662674 0.69108963 1.0405769 1.6284065 1.0405769 2.605753l0 0c0 2.035221 -1.5906239 3.685093 -3.5527573 3.685093l0 0c-1.9621315 0 -3.5527554 -1.6498718 -3.5527554 -3.685093z" fill-rule="nonzero"></path><path fill="#d9d9d9" d="m14.034121 16.784294l6.576378 0l0 5.9930553l-6.576378 0z" fill-rule="nonzero"></path><path fill="#d9d9d9" d="m21.412073 16.784294l6.576378 0l0 5.9930553l-6.576378 0z" fill-rule="nonzero"></path><path fill="#d9d9d9" d="m28.790026 16.784294l6.57638 0l0 5.9930553l-6.57638 0z" fill-rule="nonzero"></path><path fill="#d9d9d9" d="m17.64567 9.762483l6.576378 0l0 5.9930553l-6.576378 0z" fill-rule="nonzero"></path><path fill="#1c4587" d="m25.010498 9.762483l6.576378 0l0 5.9930553l-6.576378 0z" fill-rule="nonzero"></path><path fill="#1c4587" d="m19.982952 49.999897l-8.094488 -8.125984l16.220472 0.031497955z" fill-rule="nonzero"></path></g></svg>

