<?xml version="1.0" standalone="yes"?>

<svg version="1.1" viewBox="0.0 0.0 40.0 50.0" fill="none" stroke="none" stroke-linecap="square" stroke-miterlimit="10" xmlns="http://www.w3.org/2000/svg" xmlns:xlink="http://www.w3.org/1999/xlink"><clipPath id="p.0"><path d="m0 0l40.0 0l0 50.0l-40.0 0l0 -50.0z" clip-rule="nonzero"></path></clipPath><g clip-path="url(#p.0)"><path fill="#000000" fill-opacity="0.0" d="m0 0l40.0 0l0 50.0l-40.0 0z" fill-rule="nonzero"></path><path fill="#fe2e2e" d="m1.136483 7.1497316l0 0c0 -3.4674315 2.8109088 -6.2783403 6.2783403 -6.2783403l25.112612 0l0 0c1.6651192 0 3.2620392 0.6614661 4.439457 1.8388834c1.1774178 1.1774173 1.8388824 2.774338 1.8388824 4.439457l0 26.372452c0 3.467434 -2.8109093 6.278343 -6.2783394 6.278343l-25.112612 0c-3.4674318 0 -6.2783403 -2.8109093 -6.2783403 -6.278343z" fill-rule="nonzero"></path><path stroke="#000000" stroke-width="2.0" stroke-linejoin="round" stroke-linecap="butt" d="m1.136483 7.1497316l0 0c0 -3.4674315 2.8109088 -6.2783403 6.2783403 -6.2783403l25.112612 0l0 0c1.6651192 0 3.2620392 0.6614661 4.439457 1.8388834c1.1774178 1.1774173 1.8388824 2.774338 1.8388824 4.439457l0 26.372452c0 3.467434 -2.8109093 6.278343 -6.2783394 6.278343l-25.112612 0c-3.4674318 0 -6.2783403 -2.8109093 -6.2783403 -6.278343z" fill-rule="nonzero"></path><path fill="#434343" d="m14.449137 21.675169l10.162628 0l2.5407333 2.5407333l0 13.970396l0 0l-15.244095 0l0 0l0 -13.970396z" fill-rule="nonzero"></path><path fill="#ffffff" d="m23.89035 21.672445l-4.3590546 13.552782l-4.3590555 -13.552782z" fill-rule="nonzero"></path><path fill="#ffffff" d="m11.067717 13.645393l0 0c0 -4.6432104 3.9991198 -8.407276 8.932283 -8.407276l0 0c2.368988 0 4.6409492 0.8857641 6.316078 2.4624343c1.6751289 1.5766702 2.6162052 3.7150931 2.6162052 5.944842l0 0c0 4.6432095 -3.9991188 8.407274 -8.932283 8.407274l0 0c-4.9331636 0 -8.932283 -3.7640648 -8.932283 -8.407274z" fill-rule="nonzero"></path><path stroke="#ffffff" stroke-width="1.0" stroke-linejoin="round" stroke-linecap="butt" d="m11.067717 13.645393l0 0c0 -4.6432104 3.9991198 -8.407276 8.932283 -8.407276l0 0c2.368988 0 4.6409492 0.8857641 6.316078 2.4624343c1.6751289 1.5766702 2.6162052 3.7150931 2.6162052 5.944842l0 0c0 4.6432095 -3.9991188 8.407274 -8.932283 8.407274l0 0c-4.9331636 0 -8.932283 -3.7640648 -8.932283 -8.407274z" fill-rule="nonzero"></path><path fill="#666666" d="m12.571912 3.0920506l0 0c0 0.5254159 3.2545729 0.95134974 7.269292 0.95134974c4.014719 0 7.269291 -0.42593384 7.269291 -0.95134974l0 5.7080975c0 0.5254164 -3.254572 0.9513502 -7.269291 0.9513502c-4.014719 0 -7.269292 -0.42593384 -7.269292 -0.9513502z" fill-rule="nonzero"></path><path fill="#a3a3a3" d="m12.571912 3.0920506l0 0c0 -0.52541566 3.2545729 -0.9513495 7.269292 -0.9513495c4.014719 0 7.269291 0.42593384 7.269291 0.9513495l0 0c0 0.5254159 -3.254572 0.95134974 -7.269291 0.95134974c-4.014719 0 -7.269292 -0.42593384 -7.269292 -0.95134974z" fill-rule="nonzero"></path><path fill="#000000" fill-opacity="0.0" d="m27.110495 3.0920506l0 0c0 0.5254159 -3.254572 0.95134974 -7.269291 0.95134974c-4.014719 0 -7.269292 -0.42593384 -7.269292 -0.95134974l0 0c0 -0.52541566 3.2545729 -0.9513495 7.269292 -0.9513495c4.014719 0 7.269291 0.42593384 7.269291 0.9513495l0 5.7080975c0 0.5254164 -3.254572 0.9513502 -7.269291 0.9513502c-4.014719 0 -7.269292 -0.42593384 -7.269292 -0.9513502l0 -5.7080975" fill-rule="nonzero"></path><path stroke="#ffffff" stroke-width="1.0" stroke-linejoin="round" stroke-linecap="butt" d="m27.110495 3.0920506l0 0c0 0.5254159 -3.254572 0.95134974 -7.269291 0.95134974c-4.014719 0 -7.269292 -0.42593384 -7.269292 -0.95134974l0 0c0 -0.52541566 3.2545729 -0.9513495 7.269292 -0.9513495c4.014719 0 7.269291 0.42593384 7.269291 0.9513495l0 5.7080975c0 0.5254164 -3.254572 0.9513502 -7.269291 0.9513502c-4.014719 0 -7.269292 -0.42593384 -7.269292 -0.9513502l0 -5.7080975" fill-rule="nonzero"></path><path fill="#000000" fill-opacity="0.0" d="m22.972355 28.193521l2.796852 0" fill-rule="nonzero"></path><path stroke="#ffffff" stroke-width="1.0" stroke-linejoin="round" stroke-linecap="butt" d="m22.972355 28.193521l2.796852 0" fill-rule="nonzero"></path><path fill="#434343" d="m18.511814 24.29694l0 0c0 -0.5446167 0.45688057 -0.9861164 1.0204735 -0.9861164l0 0c0.27064514 0 0.5302067 0.10389519 0.7215824 0.2888279c0.19137573 0.18493271 0.29888916 0.43575478 0.29888916 0.6972885l0 0c0 0.5446167 -0.45688057 0.9861164 -1.0204716 0.9861164l0 0c-0.5635929 0 -1.0204735 -0.4414997 -1.0204735 -0.9861164z" fill-rule="nonzero"></path><path fill="#434343" d="m18.511814 27.506346l0 0c0 -0.5446167 0.45688057 -0.9861164 1.0204735 -0.9861164l0 0c0.27064514 0 0.5302067 0.10389328 0.7215824 0.288826c0.19137573 0.18493462 0.29888916 0.43575668 0.29888916 0.6972904l0 0c0 0.5446167 -0.45688057 0.9861164 -1.0204716 0.9861164l0 0c-0.5635929 0 -1.0204735 -0.4414997 -1.0204735 -0.9861164z" fill-rule="nonzero"></path><path fill="#000000" d="m19.982952 49.999897l-8.094488 -8.125984l16.220472 0.031497955z" fill-rule="nonzero"></path></g></svg>

