<?xml version="1.0" standalone="yes"?>

<svg version="1.1" viewBox="0.0 0.0 40.0 50.0" fill="none" stroke="none" stroke-linecap="square" stroke-miterlimit="10" xmlns="http://www.w3.org/2000/svg" xmlns:xlink="http://www.w3.org/1999/xlink"><clipPath id="p.0"><path d="m0 0l40.0 0l0 50.0l-40.0 0l0 -50.0z" clip-rule="nonzero"></path></clipPath><g clip-path="url(#p.0)"><path fill="#000000" fill-opacity="0.0" d="m0 0l40.0 0l0 50.0l-40.0 0z" fill-rule="nonzero"></path><path fill="#fe2e2e" d="m1.136483 7.1497316l0 0c0 -3.4674315 2.8109088 -6.2783403 6.2783403 -6.2783403l25.112612 0l0 0c1.6651192 0 3.2620392 0.6614661 4.439457 1.8388834c1.1774178 1.1774173 1.8388824 2.774338 1.8388824 4.439457l0 26.372452c0 3.467434 -2.8109093 6.278343 -6.2783394 6.278343l-25.112612 0c-3.4674318 0 -6.2783403 -2.8109093 -6.2783403 -6.278343z" fill-rule="nonzero"></path><path stroke="#000000" stroke-width="2.0" stroke-linejoin="round" stroke-linecap="butt" d="m1.136483 7.1497316l0 0c0 -3.4674315 2.8109088 -6.2783403 6.2783403 -6.2783403l25.112612 0l0 0c1.6651192 0 3.2620392 0.6614661 4.439457 1.8388834c1.1774178 1.1774173 1.8388824 2.774338 1.8388824 4.439457l0 26.372452c0 3.467434 -2.8109093 6.278343 -6.2783394 6.278343l-25.112612 0c-3.4674318 0 -6.2783403 -2.8109093 -6.2783403 -6.278343z" fill-rule="nonzero"></path><path fill="#434343" d="m23.716564 7.703336l5.523926 -3.1202898l-2.1953716 6.170432l-5.523926 3.1202898z" fill-rule="nonzero"></path><path fill="#434343" d="m23.180626 15.405117l3.4097385 3.1245365l-13.351326 16.069265l-3.4097385 -3.1245346z" fill-rule="nonzero"></path><path fill="#434343" d="m9.663335 31.674135l0 0c0.76023006 -0.9149914 2.1398144 -0.95728683 3.0813875 -0.09447098l0 0c0.94157314 0.86281776 1.0885811 2.3040142 0.32835102 3.2190037l0 0c-0.76023006 0.9149933 -2.1398134 0.95728683 -3.0813875 0.09447098l0 0c-0.94157314 -0.86281586 -1.0885811 -2.3040123 -0.32835102 -3.2190037z" fill-rule="nonzero"></path><path fill="#fe2e2e" d="m10.491987 32.182587l0 0c0.42731953 -0.51431084 1.1962681 -0.5440426 1.7174969 -0.06641388l0 0c0.2503023 0.2293663 0.4088354 0.547451 0.44072342 0.88428116c0.031888008 0.33682632 -0.06548023 0.66480637 -0.27068615 0.9117851l0 0c-0.42731857 0.5143089 -1.1962681 0.5440407 -1.7174959 0.066410065l0 0c-0.52122784 -0.47763062 -0.5973568 -1.2817574 -0.17003822 -1.7960625z" fill-rule="nonzero"></path><path fill="#434343" d="m30.41599 13.842398l5.5239277 -3.1202898l-2.1953735 6.170432l-5.523926 3.1202888z" fill-rule="nonzero"></path><path fill="#434343" d="m29.255093 4.597164l2.3340473 2.1388192l-8.061178 9.702198l-2.3340473 -2.1388178z" fill-rule="nonzero"></path><path fill="#434343" d="m33.799496 8.759404l2.1310883 1.9528341l-8.061178 9.702198l-2.1310863 -1.9528332z" fill-rule="nonzero"></path><path fill="#434343" d="m26.638283 11.766619l2.902338 2.6595745l-3.3828163 4.071459l-2.9023361 -2.6595755z" fill-rule="nonzero"></path><path fill="#434343" d="m16.634169 21.564413l0 0c0.7680721 1.0488205 2.5185413 0.9882126 3.9097843 -0.13537407c1.3912411 -1.1235847 1.8964233 -2.8846684 1.1283512 -3.9334888l10.042395 13.713152c0.7680702 1.0488205 0.26288986 2.8099022 -1.1283531 3.933487c-1.391243 1.1235886 -3.1417122 1.1841965 -3.9097824 0.13537598z" fill-rule="nonzero"></path><path fill="#8e8e8e" d="m16.634169 21.564413l0 0c-0.76806927 -1.0488205 -0.26288986 -2.809904 1.1283531 -3.9334888c1.391243 -1.1235847 3.1417122 -1.1841946 3.9097824 -0.13537407l0 0c0.7680721 1.0488205 0.26288986 2.809904 -1.1283512 3.9334888c-1.391243 1.1235867 -3.1417122 1.1841946 -3.9097843 0.13537407z" fill-rule="nonzero"></path><path fill="#000000" fill-opacity="0.0" d="m21.672304 17.49555l0 0c0.7680721 1.0488205 0.26288986 2.809904 -1.1283512 3.9334888c-1.391243 1.1235867 -3.1417122 1.1841946 -3.9097843 0.13537407l0 0c-0.76806927 -1.0488205 -0.26288986 -2.809904 1.1283531 -3.9334888c1.391243 -1.1235847 3.1417122 -1.1841946 3.9097824 -0.13537407l10.042395 13.713152c0.7680702 1.0488205 0.26288986 2.8099022 -1.1283531 3.933487c-1.391243 1.1235886 -3.1417122 1.1841965 -3.9097824 0.13537598l-10.042395 -13.713152" fill-rule="nonzero"></path><path fill="#434343" d="m11.292557 10.697933l0 0c0.2827978 0.38616753 0.9039211 0.38273716 1.3873196 -0.007660866c0.48339748 -0.39039803 0.6460161 -1.0199289 0.36321926 -1.4060965l6.543496 8.935314c0.28279686 0.38616753 0.12017822 1.0156994 -0.3632183 1.4060974c-0.48339844 0.39039803 -1.1045227 0.39382744 -1.3873196 0.007659912z" fill-rule="nonzero"></path><path fill="#8e8e8e" d="m11.292557 10.697933l0 0c-0.2827978 -0.38616753 -0.12017918 -1.0156984 0.36321926 -1.4060974c0.48339748 -0.39039803 1.1045218 -0.39382744 1.3873196 -0.007659912l0 0c0.28279686 0.38616753 0.12017822 1.0156984 -0.36321926 1.4060965c-0.48339844 0.39039803 -1.1045218 0.3938284 -1.3873196 0.007660866z" fill-rule="nonzero"></path><path fill="#000000" fill-opacity="0.0" d="m13.043096 9.284176l0 0c0.28279686 0.38616753 0.12017822 1.0156984 -0.36321926 1.4060965c-0.48339844 0.39039803 -1.1045218 0.3938284 -1.3873196 0.007660866l0 0c-0.2827978 -0.38616753 -0.12017918 -1.0156984 0.36321926 -1.4060974c0.48339748 -0.39039803 1.1045218 -0.39382744 1.3873196 -0.007659912l6.543496 8.935314c0.28279686 0.38616753 0.12017822 1.0156994 -0.3632183 1.4060974c-0.48339844 0.39039803 -1.1045227 0.39382744 -1.3873196 0.007659912l-6.543497 -8.935314" fill-rule="nonzero"></path><path fill="#434343" d="m8.438282 14.9573145l0 0c0.2801447 -0.22624779 -0.18264484 -1.3517218 -1.0336676 -2.5138159c-0.8510227 -1.1620941 -1.7680149 -1.9207468 -2.0481591 -1.694499l7.6955047 -6.214989c0.2801447 -0.22624779 1.1971369 0.5324054 2.0481596 1.6944995c0.8510227 1.1620941 1.3138113 2.2875671 1.0336676 2.5138159z" fill-rule="nonzero"></path><path fill="#8e8e8e" d="m8.438282 14.9573145l0 0c-0.28014374 0.22624779 -1.1971364 -0.5324049 -2.0481591 -1.694499c-0.8510232 -1.1620941 -1.3138118 -2.287568 -1.0336676 -2.5138159l0 0c0.2801442 -0.22624779 1.1971364 0.5324049 2.0481591 1.694499c0.8510227 1.1620941 1.3138123 2.287568 1.0336676 2.5138159z" fill-rule="nonzero"></path><path fill="#000000" fill-opacity="0.0" d="m5.3564553 10.749l0 0c0.2801442 -0.22624779 1.1971364 0.5324049 2.0481591 1.694499c0.8510227 1.1620941 1.3138123 2.287568 1.0336676 2.5138159l0 0c-0.28014374 0.22624779 -1.1971364 -0.5324049 -2.0481591 -1.694499c-0.8510232 -1.1620941 -1.3138118 -2.287568 -1.0336676 -2.5138159l7.6955047 -6.214989c0.2801447 -0.22624779 1.1971369 0.5324054 2.0481596 1.6944995c0.8510227 1.1620941 1.3138113 2.2875671 1.0336676 2.5138159l-7.695505 6.2149887" fill-rule="nonzero"></path><path fill="#434343" d="m2.3373013 11.187115l3.0954647 -2.499937l5.0850143 6.94372l-3.0954647 2.499937z" fill-rule="nonzero"></path><path fill="#434343" d="m12.1781845 11.899714l0 0c-1.683135 -2.2983637 -1.2841635 -5.5857177 0.8911276 -7.34251c2.17529 -1.7567925 5.3031607 -1.3177624 6.9862967 0.9806013l0 0c-1.8532124 -0.26210117 -3.7250938 0.2612853 -5.2028503 1.454741c-1.4777575 1.1934562 -2.4400148 2.9589553 -2.674574 4.907168z" fill-rule="nonzero"></path><path fill="#000000" d="m19.982952 49.999897l-8.094488 -8.125984l16.220472 0.031497955z" fill-rule="nonzero"></path></g></svg>

