<?xml version="1.0" standalone="yes"?>

<svg version="1.1" viewBox="0.0 0.0 377.9527559055118 377.9527559055118" fill="none" stroke="none" stroke-linecap="square" stroke-miterlimit="10" xmlns="http://www.w3.org/2000/svg" xmlns:xlink="http://www.w3.org/1999/xlink"><clipPath id="p.0"><path d="m0 0l377.95276 0l0 377.95276l-377.95276 0l0 -377.95276z" clip-rule="nonzero"></path></clipPath><g clip-path="url(#p.0)"><path fill="#000000" fill-opacity="0.0" d="m0 0l377.95276 0l0 377.95276l-377.95276 0z" fill-rule="nonzero"></path><path fill="#000000" d="m126.331505 51.646755l0 0c0 -3.65588 2.9636765 -6.6195564 6.6195602 -6.6195564l112.05223 0c1.7556152 0 3.4393158 0.6974182 4.680725 1.9388237c1.2414093 1.2414093 1.9388275 2.9251175 1.9388275 4.6807327l0 26.477428c0 3.6558762 -2.963684 6.6195526 -6.6195526 6.6195526l-112.05223 0c-3.6558838 0 -6.6195602 -2.9636765 -6.6195602 -6.6195526z" fill-rule="nonzero"></path><path fill="#783f04" d="m31.03937 218.09024l0 0c0 -87.2262 70.71081 -157.93701 157.93701 -157.93701l0 0c41.887497 0 82.05939 16.639744 111.678314 46.25868c29.618958 29.618942 46.258698 69.79083 46.258698 111.67833l0 0c0 87.2262 -70.710815 157.93701 -157.93701 157.93701l0 0c-87.226204 0 -157.93701 -70.710815 -157.93701 -157.93701z" fill-rule="nonzero"></path><path fill="#b45f06" d="m39.086613 218.0893l0 0c0 -82.78183 67.10794 -149.88977 149.88977 -149.88977l0 0c39.753235 0 77.878296 15.791916 105.98807 43.901695c28.109772 28.10978 43.901703 66.23484 43.901703 105.988075l0 0c0 82.78183 -67.10794 149.88977 -149.88977 149.88977l0 0c-82.78183 0 -149.88977 -67.10794 -149.88977 -149.88977z" fill-rule="nonzero"></path><path fill="#45818e" d="m126.33071 -120.445244l125.29133 0l0 132.37796l-62.64566 33.094486l-62.645668 -33.094486z" fill-rule="nonzero"></path><path fill="#ffd966" d="m286.82025 73.127144l31.917725 -6.7453537l6.8539124 -31.412125l6.853943 31.412125l31.917725 6.7453537l-31.917725 6.7453537l-6.853943 31.412125l-6.8539124 -31.412125z" fill-rule="nonzero"></path><path fill="#000000" fill-opacity="0.0" d="m330.35434 210.65694l0 0c2.5411072 34.705246 -8.067169 67.00719 -29.25592 89.0836l-82.26605 -96.10797z" fill-rule="nonzero"></path><path fill="#000000" fill-opacity="0.0" d="m330.35434 210.65694l0 0c2.5411072 34.705246 -8.067169 67.00719 -29.25592 89.0836" fill-rule="nonzero"></path><path stroke="#ffffff" stroke-width="4.0" stroke-linejoin="round" stroke-linecap="butt" d="m330.35434 210.65694l0 0c2.5411072 34.705246 -8.067169 67.00719 -29.25592 89.0836" fill-rule="nonzero"></path><path fill="#434343" d="m86.96827 141.77193c0.20146942 -30.043259 24.555626 -54.322487 54.599358 -54.43139c30.043732 -0.10890198 54.573257 23.993134 54.992523 54.03414z" fill-rule="nonzero"></path><path fill="#434343" d="m86.53212 140.28702l0 0c0 -0.57403564 0.46535492 -1.0393829 1.0393906 -1.0393829l124.56689 0c0.27566528 0 0.54003906 0.10949707 0.73495483 0.3044281c0.19493103 0.19491577 0.30444336 0.45928955 0.30444336 0.73495483l0 4.15744c0 0.57403564 -0.46536255 1.0393982 -1.0393982 1.0393982l-124.56689 0l0 0c-0.57403564 0 -1.0393906 -0.46536255 -1.0393906 -1.0393982z" fill-rule="nonzero"></path><path fill="#434343" d="m196.56009 151.64449c-0.20146179 30.043259 -24.555618 54.322495 -54.599365 54.431396c-30.043724 0.10888672 -54.57325 -23.993149 -54.992516 -54.03415z" fill-rule="nonzero"></path><path fill="#434343" d="m92.5661 329.87146l17.708656 -119.52754l53.125984 0l-17.708664 119.52754z" fill-rule="nonzero"></path><path fill="#434343" d="m187.99667 255.14969l0 0c0 -1.3568268 1.0999298 -2.4567413 2.4567413 -2.4567413l59.62195 0c0.6515808 0 1.2764587 0.25883484 1.7371826 0.7195587c0.46072388 0.46072388 0.7195587 1.0856018 0.7195587 1.7371826l0 9.82666c0 1.356842 -1.0999146 2.4567566 -2.4567413 2.4567566l-59.62195 0c-1.3568115 0 -2.4567413 -1.0999146 -2.4567413 -2.4567566z" fill-rule="nonzero"></path><path fill="#434343" d="m154.54219 212.00246l0 0c1.0060272 -0.9161377 2.5632477 -0.8423767 3.4781494 0.1647644l39.489975 43.470932c0.4393463 0.48364258 0.6687927 1.1222534 0.63786316 1.7753296c-0.030944824 0.6530762 -0.31973267 1.2671509 -0.8028412 1.7070923l-7.2860107 6.6351013c-1.006012 0.9161377 -2.5632324 0.8423767 -3.4781494 -0.1647644l-39.489975 -43.470932c-0.91490173 -1.0071411 -0.8410492 -2.566269 0.16497803 -3.4824066z" fill-rule="nonzero"></path><path fill="#b45f06" d="m310.78998 175.20277l-99.963394 0l19.992676 -32.159042l59.978043 0z" fill-rule="nonzero"></path><path stroke="#434343" stroke-width="8.0" stroke-linejoin="round" stroke-linecap="butt" d="m310.78998 175.20277l-99.963394 0l19.992676 -32.159042l59.978043 0z" fill-rule="nonzero"></path><path fill="#b45f06" d="m210.95999 173.77179l100.0 0l0 71.68504l-100.0 0z" fill-rule="nonzero"></path><path stroke="#434343" stroke-width="8.0" stroke-linejoin="round" stroke-linecap="butt" d="m210.95999 173.77179l100.0 0l0 71.68504l-100.0 0z" fill-rule="nonzero"></path><path fill="#000000" fill-opacity="0.0" d="m260.8083 143.04373l0.1574707 30.740158" fill-rule="nonzero"></path><path stroke="#434343" stroke-width="8.0" stroke-linejoin="round" stroke-linecap="butt" d="m260.8083 143.04373l0.1574707 30.740158" fill-rule="nonzero"></path><path fill="#000000" fill-opacity="0.0" d="m330.35434 210.65694l0 0c2.5411072 34.705246 -8.067169 67.00719 -29.25592 89.0836l-82.26605 -96.10797z" fill-rule="nonzero"></path><path fill="#000000" fill-opacity="0.0" d="m330.35434 210.65694l0 0c2.5411072 34.705246 -8.067169 67.00719 -29.25592 89.0836" fill-rule="nonzero"></path><path stroke="#ffffff" stroke-width="4.0" stroke-linejoin="round" stroke-linecap="butt" d="m330.35434 210.65694l0 0c2.5411072 34.705246 -8.067169 67.00719 -29.25592 89.0836" fill-rule="nonzero"></path></g></svg>

