<?xml version="1.0" standalone="yes"?>

<svg version="1.1" viewBox="0.0 0.0 377.9527559055118 377.9527559055118" fill="none" stroke="none" stroke-linecap="square" stroke-miterlimit="10" xmlns="http://www.w3.org/2000/svg" xmlns:xlink="http://www.w3.org/1999/xlink"><clipPath id="p.0"><path d="m0 0l377.95276 0l0 377.95276l-377.95276 0l0 -377.95276z" clip-rule="nonzero"></path></clipPath><g clip-path="url(#p.0)"><path fill="#000000" fill-opacity="0.0" d="m0 0l377.95276 0l0 377.95276l-377.95276 0z" fill-rule="nonzero"></path><path fill="#000000" d="m126.331505 51.646755l0 0c0 -3.65588 2.9636765 -6.6195564 6.6195602 -6.6195564l112.05223 0c1.7556152 0 3.4393158 0.6974182 4.680725 1.9388237c1.2414093 1.2414093 1.9388275 2.9251175 1.9388275 4.6807327l0 26.477428c0 3.6558762 -2.963684 6.6195526 -6.6195526 6.6195526l-112.05223 0c-3.6558838 0 -6.6195602 -2.9636765 -6.6195602 -6.6195526z" fill-rule="nonzero"></path><path fill="#783f04" d="m31.03937 218.09024l0 0c0 -87.2262 70.71081 -157.93701 157.93701 -157.93701l0 0c41.887497 0 82.05939 16.639744 111.678314 46.25868c29.618958 29.618942 46.258698 69.79083 46.258698 111.67833l0 0c0 87.2262 -70.710815 157.93701 -157.93701 157.93701l0 0c-87.226204 0 -157.93701 -70.710815 -157.93701 -157.93701z" fill-rule="nonzero"></path><path fill="#b45f06" d="m39.086613 218.0893l0 0c0 -82.78183 67.10794 -149.88977 149.88977 -149.88977l0 0c39.753235 0 77.878296 15.791916 105.98807 43.901695c28.109772 28.10978 43.901703 66.23484 43.901703 105.988075l0 0c0 82.78183 -67.10794 149.88977 -149.88977 149.88977l0 0c-82.78183 0 -149.88977 -67.10794 -149.88977 -149.88977z" fill-rule="nonzero"></path><path fill="#45818e" d="m126.33071 -120.445244l125.29133 0l0 132.37796l-62.64566 33.094486l-62.645668 -33.094486z" fill-rule="nonzero"></path><path fill="#ffd966" d="m286.82025 73.127144l31.917725 -6.7453537l6.8539124 -31.412125l6.853943 31.412125l31.917725 6.7453537l-31.917725 6.7453537l-6.853943 31.412125l-6.8539124 -31.412125z" fill-rule="nonzero"></path><path fill="#783f04" d="m167.76254 175.54227l0 0c0 -10.87175 9.497208 -19.685043 21.2126 -19.685043l0 0c11.715393 0 21.2126 8.813293 21.2126 19.685043l0 0c0 10.87175 -9.497208 19.685043 -21.2126 19.685043l0 0c-11.715393 0 -21.2126 -8.813293 -21.2126 -19.685043z" fill-rule="nonzero"></path><path fill="#783f04" d="m168.91333 206.98296l0 0c0 -3.693573 2.9942322 -6.68779 6.68779 -6.68779l26.750397 0l0 0c1.7737122 0 3.4747772 0.7046051 4.7289886 1.9588013c1.2541962 1.2542114 1.9588013 2.9552765 1.9588013 4.7289886l0 52.230698c0 3.693573 -2.994217 6.687805 -6.68779 6.687805l-26.750397 0c-3.6935577 0 -6.68779 -2.9942322 -6.68779 -6.687805z" fill-rule="nonzero"></path><path fill="#783f04" d="m154.73492 159.96709l0 0c0.72769165 -0.28701782 1.5491486 0.07066345 1.8347473 0.7989197l20.162567 51.41002c0.137146 0.3497162 0.12986755 0.73986816 -0.020248413 1.08461c-0.15011597 0.34475708 -0.43077087 0.61586 -0.78022766 0.7536926l-5.270279 2.07872c-0.7277069 0.28701782 -1.5491486 -0.07066345 -1.8347626 -0.7989197l-20.162552 -51.41002c-0.285614 -0.72824097 0.072769165 -1.5512848 0.8004608 -1.8383026z" fill-rule="nonzero"></path><path fill="#783f04" d="m223.7483 159.96707l0 0c-0.72769165 -0.28701782 -1.548996 0.070739746 -1.8344116 0.799057l-20.257736 51.693207c-0.1370697 0.34976196 -0.1296997 0.73994446 0.020477295 1.0847168c0.15019226 0.34477234 0.4308777 0.61590576 0.7803345 0.7537384l5.270294 2.07872c0.72769165 0.28701782 1.5489807 -0.070739746 1.8343964 -0.799057l20.257751 -51.693207c0.28541565 -0.7283325 -0.07312012 -1.5514374 -0.80081177 -1.8384552z" fill-rule="nonzero"></path><path fill="#783f04" d="m175.1677 244.6574l0 0c-1.5249634 -0.12176514 -2.8602753 1.0157166 -2.9824982 2.5406647l-5.8881226 73.46982c-0.05870056 0.7323303 0.17593384 1.4578552 0.65226746 2.0170288c0.47631836 0.55914307 1.1553345 0.9061279 1.8876495 0.9645996l11.04451 0.881897c1.5249786 0.12176514 2.8602905 -1.0157471 2.9824982 -2.54068l5.888138 -73.46983l0 0c0.12220764 -1.5249329 -1.0149536 -2.859848 -2.5399323 -2.9816132z" fill-rule="nonzero"></path><path fill="#783f04" d="m202.78574 244.6574l0 0c1.5249786 -0.12176514 2.8602905 1.0157166 2.9824982 2.5406647l5.888138 73.46982c0.058685303 0.7323303 -0.17593384 1.4578552 -0.65226746 2.0170288c-0.47631836 0.55914307 -1.1553345 0.9061279 -1.8876495 0.9645996l-11.04451 0.881897c-1.5249786 0.12176514 -2.8602905 -1.0157471 -2.9824982 -2.54068l-5.888138 -73.46983l0 0c-0.12220764 -1.5249329 1.0149536 -2.859848 2.5399323 -2.9816132z" fill-rule="nonzero"></path><path fill="#ffffff" d="m249.95152 175.23125l0 0c0 -10.87175 9.497208 -19.685043 21.2126 -19.685043l0 0c11.715393 0 21.212585 8.813293 21.212585 19.685043l0 0c0 10.871735 -9.497192 19.685028 -21.212585 19.685028l0 0c-11.715393 0 -21.2126 -8.813293 -21.2126 -19.685028z" fill-rule="nonzero"></path><path fill="#ffffff" d="m251.10231 206.67194l0 0c0 -3.693573 2.994217 -6.687805 6.68779 -6.687805l26.750397 0l0 0c1.7737122 0 3.474762 0.7046051 4.7289734 1.9588165c1.2542114 1.2542114 1.9588318 2.9552765 1.9588318 4.7289886l0 52.230713c0 3.693573 -2.9942322 6.6877747 -6.687805 6.6877747l-26.750397 0c-3.693573 0 -6.68779 -2.9942017 -6.68779 -6.6877747z" fill-rule="nonzero"></path><path fill="#ffffff" d="m236.92389 159.65607l0 0c0.7277069 -0.28701782 1.5491486 0.07066345 1.8347626 0.7989197l20.162552 51.410004c0.137146 0.34973145 0.12988281 0.73986816 -0.020233154 1.0846252c-0.15011597 0.34474182 -0.43078613 0.61586 -0.7802124 0.7536926l-5.270294 2.07872c-0.7277069 0.28701782 -1.5491486 -0.07067871 -1.8347626 -0.7989197l-20.162552 -51.41002c-0.285614 -0.7282562 0.072753906 -1.5512848 0.8004608 -1.8383026z" fill-rule="nonzero"></path><path fill="#ffffff" d="m305.9373 159.65605l0 0c-0.72769165 -0.28701782 -1.5489807 0.07072449 -1.8344116 0.799057l-20.257751 51.693207c-0.13705444 0.34976196 -0.1296997 0.73994446 0.020507812 1.0847168c0.150177 0.34477234 0.43084717 0.61590576 0.78030396 0.75372314l5.270294 2.07872c0.72769165 0.28703308 1.5489807 -0.07072449 1.8344116 -0.79904175l20.257751 -51.693207c0.2854004 -0.7283325 -0.07312012 -1.5514374 -0.80081177 -1.8384552z" fill-rule="nonzero"></path><path fill="#ffffff" d="m257.3567 244.34636l0 0c-1.5249939 -0.12176514 -2.8602905 1.0157318 -2.9825134 2.54068l-5.888138 73.46983c-0.058685303 0.7322998 0.1759491 1.4578247 0.65226746 2.0169983c0.47633362 0.5591736 1.1553497 0.90615845 1.8876648 0.9646301l11.044495 0.88186646c1.5249939 0.12176514 2.8602905 -1.0157166 2.9825134 -2.5406494l5.8881226 -73.46985l0 0c0.1222229 -1.5249329 -1.0149536 -2.8598633 -2.539917 -2.9816284z" fill-rule="nonzero"></path><path fill="#ffffff" d="m284.97473 244.34636l0 0c1.5249634 -0.12176514 2.86026 1.0157318 2.982483 2.54068l5.8881226 73.46983c0.05871582 0.7322998 -0.17593384 1.4578247 -0.6522522 2.0169983c-0.47631836 0.5591736 -1.1553345 0.90615845 -1.8876648 0.9646301l-11.044495 0.88186646c-1.5249939 0.12176514 -2.8602905 -1.0157166 -2.9825134 -2.5406494l-5.8881226 -73.46985l0 0c-0.1222229 -1.5249329 1.0149536 -2.8598633 2.539917 -2.9816284z" fill-rule="nonzero"></path><path fill="#ffffff" d="m85.57357 175.54095l0 0c0 -10.87175 9.4972 -19.685043 21.2126 -19.685043l0 0c11.715393 0 21.212593 8.813293 21.212593 19.685043l0 0c0 10.87175 -9.4972 19.685043 -21.212593 19.685043l0 0c-11.715401 0 -21.2126 -8.813293 -21.2126 -19.685043z" fill-rule="nonzero"></path><path fill="#ffffff" d="m86.72435 206.98164l0 0c0 -3.693573 2.9942322 -6.68779 6.6877975 -6.68779l26.75039 0l0 0c1.7737122 0 3.4747849 0.7046051 4.7289886 1.9588013c1.2542038 1.2542114 1.9588089 2.9552765 1.9588089 4.7289886l0 52.230698c0 3.693573 -2.9942245 6.687805 -6.6877975 6.687805l-26.75039 0c-3.6935654 0 -6.6877975 -2.9942322 -6.6877975 -6.687805z" fill-rule="nonzero"></path><path fill="#ffffff" d="m72.545944 159.96577l0 0c0.72769165 -0.28701782 1.5491486 0.07066345 1.834755 0.7989197l20.16256 51.41002c0.13715363 0.3497162 0.12987518 0.73986816 -0.020240784 1.08461c-0.15011597 0.34475708 -0.43077087 0.61586 -0.78022766 0.7536926l-5.2702866 2.07872c-0.7276993 0.28701782 -1.5491486 -0.07066345 -1.8347626 -0.7989197l-20.162552 -51.41002c-0.285614 -0.72824097 0.072769165 -1.5512848 0.8004608 -1.8383026z" fill-rule="nonzero"></path><path fill="#ffffff" d="m141.55933 159.96576l0 0c-0.72769165 -0.28701782 -1.5489807 0.070739746 -1.8344116 0.799057l-20.257736 51.693207c-0.13706207 0.34976196 -0.12969208 0.73994446 0.020484924 1.0847168c0.15018463 0.34477234 0.4308777 0.61590576 0.78032684 0.7537384l5.270294 2.07872c0.72769165 0.28701782 1.5489883 -0.070739746 1.834404 -0.799057l20.257744 -51.693207c0.28541565 -0.7283325 -0.07312012 -1.5514374 -0.80081177 -1.8384552z" fill-rule="nonzero"></path><path fill="#ffffff" d="m92.97872 244.65608l0 0c-1.524971 -0.12176514 -2.860283 1.0157166 -2.9824982 2.5406647l-5.88813 73.46982c-0.058692932 0.7323303 0.17593384 1.4578552 0.65226746 2.0170288c0.476326 0.55914307 1.1553345 0.9061279 1.8876572 0.9645996l11.04451 0.881897c1.524971 0.12176514 2.860283 -1.0157471 2.9824905 -2.54068l5.888138 -73.46983l0 0c0.12221527 -1.5249329 -1.014946 -2.859848 -2.5399246 -2.9816132z" fill-rule="nonzero"></path><path fill="#ffffff" d="m120.59676 244.65608l0 0c1.5249786 -0.12176514 2.8602905 1.0157166 2.9824982 2.5406647l5.88813 73.46982c0.05870056 0.7323303 -0.17593384 1.4578552 -0.6522522 2.0170288c-0.47633362 0.55914307 -1.1553421 0.9061279 -1.8876648 0.9645996l-11.04451 0.881897c-1.524971 0.12176514 -2.860283 -1.0157471 -2.9824982 -2.54068l-5.88813 -73.46983l0 0c-0.12221527 -1.5249329 1.014946 -2.859848 2.5399246 -2.9816132z" fill-rule="nonzero"></path><path fill="#ffffff" d="m129.71391 155.85826l0 -5.0551147l0 0c0 -2.7918549 8.651123 -5.0551147 19.32283 -5.0551147c10.671707 0 19.32283 2.26326 19.32283 5.0551147l0 5.0551147z" fill-rule="nonzero"></path><path fill="#ffffff" d="m145.17848 119.779526l7.7165375 0l0 26.204727l-7.7165375 0z" fill-rule="nonzero"></path><path fill="#ffffff" d="m173.08398 89.19948l0 19.748032l0 0c0 10.906532 -10.766312 19.748032 -24.047241 19.748032c-13.28093 0 -24.047241 -8.841499 -24.047241 -19.748032l0 -19.748032z" fill-rule="nonzero"></path><path fill="#ffd966" d="m132.59584 103.45799l12.559799 8.392334E-5l3.8811035 -11.946266l3.8811188 11.946266l12.559799 -8.392334E-5l-10.161148 7.3831177l3.8812714 11.946213l-10.161041 -7.383255l-10.161041 7.383255l3.8812714 -11.946213z" fill-rule="nonzero"></path><path fill="#000000" fill-opacity="0.0" d="m111.24147 104.656166l0 0c0 -5.2619247 4.2656326 -9.527557 9.527557 -9.527557l56.53543 0c2.5268707 0 4.950241 1.0037918 6.7369995 2.7905579c1.7867737 1.786766 2.7905579 4.2101364 2.7905579 6.7369995l0 0l0 0c0 5.2619247 -4.265625 9.527557 -9.527557 9.527557l-56.53543 0l0 0c-5.2619247 0 -9.527557 -4.2656326 -9.527557 -9.527557z" fill-rule="nonzero"></path><path fill="#000000" fill-opacity="0.0" d="m120.76903 114.18372l0 0c-5.2619247 0 -9.527557 -4.2656326 -9.527557 -9.527557l0 0l0 0c0 -5.2619247 4.2656326 -9.527557 9.527557 -9.527557m56.53543 0c2.5268707 0 4.950241 1.0037918 6.7369995 2.7905579c1.7867737 1.786766 2.7905579 4.2101364 2.7905579 6.7369995l0 0l0 0c0 5.2619247 -4.265625 9.527557 -9.527557 9.527557" fill-rule="nonzero"></path><path stroke="#ffffff" stroke-width="4.0" stroke-linejoin="round" stroke-linecap="butt" d="m120.76903 114.18372l0 0c-5.2619247 0 -9.527557 -4.2656326 -9.527557 -9.527557l0 0l0 0c0 -5.2619247 4.2656326 -9.527557 9.527557 -9.527557m56.53543 0c2.5268707 0 4.950241 1.0037918 6.7369995 2.7905579c1.7867737 1.786766 2.7905579 4.2101364 2.7905579 6.7369995l0 0l0 0c0 5.2619247 -4.265625 9.527557 -9.527557 9.527557" fill-rule="nonzero"></path><path fill="#000000" fill-opacity="0.0" d="m330.35434 210.65694l0 0c2.5411072 34.705246 -8.067169 67.00719 -29.25592 89.0836l-82.26605 -96.10797z" fill-rule="nonzero"></path><path fill="#000000" fill-opacity="0.0" d="m330.35434 210.65694l0 0c2.5411072 34.705246 -8.067169 67.00719 -29.25592 89.0836" fill-rule="nonzero"></path><path stroke="#ffffff" stroke-width="4.0" stroke-linejoin="round" stroke-linecap="butt" d="m330.35434 210.65694l0 0c2.5411072 34.705246 -8.067169 67.00719 -29.25592 89.0836" fill-rule="nonzero"></path></g></svg>

