<?xml version="1.0" standalone="yes"?>

<svg version="1.1" viewBox="0.0 0.0 377.9527559055118 377.9527559055118" fill="none" stroke="none" stroke-linecap="square" stroke-miterlimit="10" xmlns="http://www.w3.org/2000/svg" xmlns:xlink="http://www.w3.org/1999/xlink"><clipPath id="p.0"><path d="m0 0l377.95276 0l0 377.95276l-377.95276 0l0 -377.95276z" clip-rule="nonzero"></path></clipPath><g clip-path="url(#p.0)"><path fill="#000000" fill-opacity="0.0" d="m0 0l377.95276 0l0 377.95276l-377.95276 0z" fill-rule="nonzero"></path><path fill="#000000" d="m126.331505 51.646755l0 0c0 -3.65588 2.9636765 -6.6195564 6.6195602 -6.6195564l112.05223 0c1.7556152 0 3.4393158 0.6974182 4.680725 1.9388237c1.2414093 1.2414093 1.9388275 2.9251175 1.9388275 4.6807327l0 26.477428c0 3.6558762 -2.963684 6.6195526 -6.6195526 6.6195526l-112.05223 0c-3.6558838 0 -6.6195602 -2.9636765 -6.6195602 -6.6195526z" fill-rule="nonzero"></path><path fill="#783f04" d="m31.03937 218.09024l0 0c0 -87.2262 70.71081 -157.93701 157.93701 -157.93701l0 0c41.887497 0 82.05939 16.639744 111.678314 46.25868c29.618958 29.618942 46.258698 69.79083 46.258698 111.67833l0 0c0 87.2262 -70.710815 157.93701 -157.93701 157.93701l0 0c-87.226204 0 -157.93701 -70.710815 -157.93701 -157.93701z" fill-rule="nonzero"></path><path fill="#b45f06" d="m39.086613 218.0893l0 0c0 -82.78183 67.10794 -149.88977 149.88977 -149.88977l0 0c39.753235 0 77.878296 15.791916 105.98807 43.901695c28.109772 28.10978 43.901703 66.23484 43.901703 105.988075l0 0c0 82.78183 -67.10794 149.88977 -149.88977 149.88977l0 0c-82.78183 0 -149.88977 -67.10794 -149.88977 -149.88977z" fill-rule="nonzero"></path><path fill="#45818e" d="m126.33071 -120.445244l125.29133 0l0 132.37796l-62.64566 33.094486l-62.645668 -33.094486z" fill-rule="nonzero"></path><path fill="#000000" fill-opacity="0.0" d="m330.35434 210.65694l0 0c2.5411072 34.705246 -8.067169 67.00719 -29.25592 89.0836l-82.26605 -96.10797z" fill-rule="nonzero"></path><path fill="#000000" fill-opacity="0.0" d="m330.35434 210.65694l0 0c2.5411072 34.705246 -8.067169 67.00719 -29.25592 89.0836" fill-rule="nonzero"></path><path stroke="#ffffff" stroke-width="4.0" stroke-linejoin="round" stroke-linecap="butt" d="m330.35434 210.65694l0 0c2.5411072 34.705246 -8.067169 67.00719 -29.25592 89.0836" fill-rule="nonzero"></path><path fill="#783f04" d="m150.9697 234.38196l74.05699 0l18.514816 18.514801l0 101.73715l0 0l-111.086624 0l0 0l0 -101.73715z" fill-rule="nonzero"></path><path fill="#ffffff" d="m219.7402 234.44289l-31.779526 98.645676l-31.779526 -98.645676z" fill-rule="nonzero"></path><path fill="#b45f06" d="m202.85773 287.90598l-29.795273 0l14.897629 -45.624664z" fill-rule="nonzero"></path><path fill="#ffffff" d="m123.937004 177.19336l0 0c0 -33.832886 29.119118 -61.259842 65.03936 -61.259842l0 0c17.249527 0 33.79254 6.4541397 45.98979 17.942596c12.197235 11.488449 19.049591 27.07013 19.049591 43.317245l0 0c0 33.83287 -29.119125 61.259842 -65.03938 61.259842l0 0c-35.920242 0 -65.03936 -27.426971 -65.03936 -61.259842z" fill-rule="nonzero"></path><path stroke="#ffffff" stroke-width="1.0" stroke-linejoin="round" stroke-linecap="butt" d="m123.937004 177.19336l0 0c0 -33.832886 29.119118 -61.259842 65.03936 -61.259842l0 0c17.249527 0 33.79254 6.4541397 45.98979 17.942596c12.197235 11.488449 19.049591 27.07013 19.049591 43.317245l0 0c0 33.83287 -29.119125 61.259842 -65.03938 61.259842l0 0c-35.920242 0 -65.03936 -27.426971 -65.03936 -61.259842z" fill-rule="nonzero"></path><path fill="#b45f06" d="m174.64699 234.44357l26.627289 0l-13.313644 26.199463z" fill-rule="nonzero"></path><path fill="#b45f06" d="m173.06299 287.46457l29.795273 0l-14.897629 45.624664z" fill-rule="nonzero"></path><path fill="#000000" fill-opacity="0.0" d="m202.85959 148.32283c-20.322632 20.91362 -48.08571 42.09326 -77.87271 42.09326" fill-rule="evenodd"></path><path stroke="#783f04" stroke-width="8.0" stroke-linejoin="round" stroke-linecap="butt" d="m202.85959 148.32283c-20.322632 20.91362 -48.08571 42.09326 -77.87271 42.09326" fill-rule="evenodd"></path><path fill="#000000" fill-opacity="0.0" d="m197.95013 147.91472c12.844894 18.524887 36.60611 30.539124 57.34787 29.589157" fill-rule="evenodd"></path><path stroke="#783f04" stroke-width="8.0" stroke-linejoin="round" stroke-linecap="butt" d="m197.95013 147.91472c12.844894 18.524887 36.60611 30.539124 57.34787 29.589157" fill-rule="evenodd"></path><path fill="#ffd966" d="m286.82025 73.127144l31.917725 -6.7453537l6.8539124 -31.412125l6.853943 31.412125l31.917725 6.7453537l-31.917725 6.7453537l-6.853943 31.412125l-6.8539124 -31.412125z" fill-rule="nonzero"></path></g></svg>

