<?xml version="1.0" standalone="yes"?>

<svg version="1.1" viewBox="0.0 0.0 377.9527559055118 377.9527559055118" fill="none" stroke="none" stroke-linecap="square" stroke-miterlimit="10" xmlns="http://www.w3.org/2000/svg" xmlns:xlink="http://www.w3.org/1999/xlink"><clipPath id="p.0"><path d="m0 0l377.95276 0l0 377.95276l-377.95276 0l0 -377.95276z" clip-rule="nonzero"></path></clipPath><g clip-path="url(#p.0)"><path fill="#000000" fill-opacity="0.0" d="m0 0l377.95276 0l0 377.95276l-377.95276 0z" fill-rule="nonzero"></path><path fill="#000000" d="m126.331505 51.646755l0 0c0 -3.65588 2.9636765 -6.6195564 6.6195602 -6.6195564l112.05223 0c1.7556152 0 3.4393158 0.6974182 4.680725 1.9388237c1.2414093 1.2414093 1.9388275 2.9251175 1.9388275 4.6807327l0 26.477428c0 3.6558762 -2.963684 6.6195526 -6.6195526 6.6195526l-112.05223 0c-3.6558838 0 -6.6195602 -2.9636765 -6.6195602 -6.6195526z" fill-rule="nonzero"></path><path fill="#e69138" d="m31.03937 218.09024l0 0c0 -87.2262 70.71081 -157.93701 157.93701 -157.93701l0 0c41.887497 0 82.05939 16.639744 111.678314 46.25868c29.618958 29.618942 46.258698 69.79083 46.258698 111.67833l0 0c0 87.2262 -70.710815 157.93701 -157.93701 157.93701l0 0c-87.226204 0 -157.93701 -70.710815 -157.93701 -157.93701z" fill-rule="nonzero"></path><path fill="#ffd966" d="m39.086613 218.0893l0 0c0 -82.78183 67.10794 -149.88977 149.88977 -149.88977l0 0c39.753235 0 77.878296 15.791916 105.98807 43.901695c28.109772 28.10978 43.901703 66.23484 43.901703 105.988075l0 0c0 82.78183 -67.10794 149.88977 -149.88977 149.88977l0 0c-82.78183 0 -149.88977 -67.10794 -149.88977 -149.88977z" fill-rule="nonzero"></path><path fill="#45818e" d="m126.33071 -120.445244l125.29133 0l0 132.37796l-62.64566 33.094486l-62.645668 -33.094486z" fill-rule="nonzero"></path><path fill="#ffd966" d="m286.82025 73.127144l31.917725 -6.7453537l6.8539124 -31.412125l6.853943 31.412125l31.917725 6.7453537l-31.917725 6.7453537l-6.853943 31.412125l-6.8539124 -31.412125z" fill-rule="nonzero"></path><path fill="#000000" fill-opacity="0.0" d="m330.35434 210.65694l0 0c2.5411072 34.705246 -8.067169 67.00719 -29.25592 89.0836l-82.26605 -96.10797z" fill-rule="nonzero"></path><path fill="#000000" fill-opacity="0.0" d="m330.35434 210.65694l0 0c2.5411072 34.705246 -8.067169 67.00719 -29.25592 89.0836" fill-rule="nonzero"></path><path stroke="#ffffff" stroke-width="4.0" stroke-linejoin="round" stroke-linecap="butt" d="m330.35434 210.65694l0 0c2.5411072 34.705246 -8.067169 67.00719 -29.25592 89.0836" fill-rule="nonzero"></path><path fill="#434343" d="m220.16374 153.05164l-62.374847 0l12.47496 -41.583023l37.42491 0z" fill-rule="nonzero"></path><path fill="#434343" d="m98.99273 218.09256l0 0c0 -49.69693 40.28733 -89.98425 89.98426 -89.98425l0 0c23.865295 0 46.753143 9.480469 63.628464 26.35579c16.87532 16.87532 26.35579 39.763153 26.35579 63.628464l0 0c0 49.69693 -40.287323 89.98425 -89.98425 89.98425l0 0c-49.69693 0 -89.98426 -40.287323 -89.98426 -89.98425z" fill-rule="nonzero"></path><path fill="#ffd966" d="m157.78813 218.08453l0 0c0 -17.220856 13.960251 -31.181107 31.181107 -31.181107l0 0c8.269745 0 16.200775 3.285141 22.04837 9.132736c5.84758 5.84758 9.132736 13.7786255 9.132736 22.04837l0 0c0 17.22084 -13.960266 31.181091 -31.181107 31.181091l0 0c-17.220856 0 -31.181107 -13.960251 -31.181107 -31.181091z" fill-rule="nonzero"></path><path fill="#434343" d="m257.10568 249.27661l0 -62.374542l41.58322 12.474915l0 37.42473z" fill-rule="nonzero"></path><path fill="#434343" d="m157.7889 283.12704l62.374847 0l-12.474976 41.58304l-37.42491 0z" fill-rule="nonzero"></path><path fill="#434343" d="m120.846954 186.90207l0 62.374557l-41.583237 -12.474915l0 -37.42473z" fill-rule="nonzero"></path><path fill="#434343" d="m157.78778 148.63614l-40.455536 47.47577l-23.559563 -36.465378l24.273323 -28.485474z" fill-rule="nonzero"></path><path fill="#434343" d="m220.162 148.63614l40.45552 47.47577l23.55957 -36.465378l-24.273315 -28.485474z" fill-rule="nonzero"></path><path fill="#434343" d="m263.54465 244.70383l-44.078278 44.132843l38.2377 20.558807l26.44696 -26.479706z" fill-rule="nonzero"></path><path fill="#434343" d="m115.10446 242.01782l44.078278 44.132843l-38.237694 20.558807l-26.446968 -26.479706z" fill-rule="nonzero"></path></g></svg>

