<?xml version="1.0" standalone="yes"?>

<svg version="1.1" viewBox="0.0 0.0 188.9763779527559 188.9763779527559" fill="none" stroke="none" stroke-linecap="square" stroke-miterlimit="10" xmlns="http://www.w3.org/2000/svg" xmlns:xlink="http://www.w3.org/1999/xlink"><clipPath id="p.0"><path d="m0 0l188.97638 0l0 188.97638l-188.97638 0l0 -188.97638z" clip-rule="nonzero"></path></clipPath><g clip-path="url(#p.0)"><path fill="#000000" fill-opacity="0.0" d="m0 0l188.97638 0l0 188.97638l-188.97638 0z" fill-rule="nonzero"></path><path fill="#3c78d8" d="m4.335958 34.47829l0 0c0 -16.55148 13.4176235 -29.969105 29.969103 -29.969105l120.18778 0l0 0c7.948303 0 15.57106 3.1574502 21.191345 8.777748c5.6203003 5.6202965 8.777756 13.243055 8.777756 21.191357l0 119.87282c0 16.551483 -13.417633 29.9691 -29.9691 29.9691l-120.18778 0c-16.55148 0 -29.969103 -13.417618 -29.969103 -29.9691z" fill-rule="nonzero"></path><path stroke="#000000" stroke-width="8.0" stroke-linejoin="round" stroke-linecap="butt" d="m4.335958 34.47829l0 0c0 -16.55148 13.4176235 -29.969105 29.969103 -29.969105l120.18778 0l0 0c7.948303 0 15.57106 3.1574502 21.191345 8.777748c5.6203003 5.6202965 8.777756 13.243055 8.777756 21.191357l0 119.87282c0 16.551483 -13.417633 29.9691 -29.9691 29.9691l-120.18778 0c-16.55148 0 -29.969103 -13.417618 -29.969103 -29.9691z" fill-rule="nonzero"></path><path fill="#fe2e2e" d="m67.13938 11.241469l54.697617 0l13.674812 13.674815l0 146.32518l0 0l-82.04724 0l0 0l0 -146.32518z" fill-rule="nonzero"></path><path stroke="#000000" stroke-width="4.0" stroke-linejoin="round" stroke-linecap="butt" d="m67.13938 11.241469l54.697617 0l13.674812 13.674815l0 146.32518l0 0l-82.04724 0l0 0l0 -146.32518z" fill-rule="nonzero"></path><path fill="#fe2e2e" d="m42.110237 159.2021l104.580055 0l0 14.816269l-104.580055 0z" fill-rule="nonzero"></path><path stroke="#000000" stroke-width="4.0" stroke-linejoin="round" stroke-linecap="butt" d="m42.110237 159.2021l104.580055 0l0 14.816269l-104.580055 0z" fill-rule="nonzero"></path><path fill="#ffffff" d="m60.304462 69.65354l30.929134 0l0 22.110237l-30.929134 0z" fill-rule="nonzero"></path><path fill="#ffffff" d="m60.304462 99.1811l30.929134 0l0 22.110237l-30.929134 0z" fill-rule="nonzero"></path><path fill="#ffffff" d="m60.304462 128.70866l30.929134 0l0 22.11023l-30.929134 0z" fill-rule="nonzero"></path><path fill="#ffffff" d="m97.56431 69.65354l30.92913 0l0 22.110237l-30.92913 0z" fill-rule="nonzero"></path><path fill="#ffffff" d="m97.56431 99.1811l30.92913 0l0 22.110237l-30.92913 0z" fill-rule="nonzero"></path><path fill="#ffffff" d="m97.56431 128.70866l30.92913 0l0 22.11023l-30.92913 0z" fill-rule="nonzero"></path><path fill="#000000" fill-opacity="0.0" d="m140.87665 66.62992l0 92.34646" fill-rule="nonzero"></path><path stroke="#000000" stroke-width="8.0" stroke-linejoin="round" stroke-linecap="butt" d="m140.87665 66.62992l0 92.34646" fill-rule="nonzero"></path><path fill="#ffffff" d="m95.36146 16.041136l5.6266937 2.3226376l0 0c3.1075363 1.2827568 3.4383316 7.622881 0.73885345 14.161064c-2.6994705 6.5381813 -7.40699 10.798542 -10.514526 9.515785l-5.6266937 -2.3226357z" fill-rule="nonzero"></path><path fill="#fe2e2e" d="m92.78696 21.837927l3.6721573 1.5158272l0 0c2.0280762 0.83716774 2.5213013 4.3032227 1.1016464 7.7416534c-1.4196548 3.4384289 -4.214592 5.547167 -6.242676 4.710001l-3.6721573 -1.5158272z" fill-rule="nonzero"></path><path fill="#ffffff" d="m60.304462 49.25197l68.18898 0l0 13.6377945l-68.18898 0z" fill-rule="nonzero"></path></g></svg>

