<?xml version="1.0" standalone="yes"?>

<svg version="1.1" viewBox="0.0 0.0 188.9763779527559 188.9763779527559" fill="none" stroke="none" stroke-linecap="square" stroke-miterlimit="10" xmlns="http://www.w3.org/2000/svg" xmlns:xlink="http://www.w3.org/1999/xlink"><clipPath id="p.0"><path d="m0 0l188.97638 0l0 188.97638l-188.97638 0l0 -188.97638z" clip-rule="nonzero"></path></clipPath><g clip-path="url(#p.0)"><path fill="#000000" fill-opacity="0.0" d="m0 0l188.97638 0l0 188.97638l-188.97638 0z" fill-rule="nonzero"></path><path fill="#3c78d8" d="m4.335958 34.47829l0 0c0 -16.55148 13.4176235 -29.969105 29.969103 -29.969105l120.18778 0l0 0c7.948303 0 15.57106 3.1574502 21.191345 8.777748c5.6203003 5.6202965 8.777756 13.243055 8.777756 21.191357l0 119.87282c0 16.551483 -13.417633 29.9691 -29.9691 29.9691l-120.18778 0c-16.55148 0 -29.969103 -13.417618 -29.969103 -29.9691z" fill-rule="nonzero"></path><path stroke="#000000" stroke-width="8.0" stroke-linejoin="round" stroke-linecap="butt" d="m4.335958 34.47829l0 0c0 -16.55148 13.4176235 -29.969105 29.969103 -29.969105l120.18778 0l0 0c7.948303 0 15.57106 3.1574502 21.191345 8.777748c5.6203003 5.6202965 8.777756 13.243055 8.777756 21.191357l0 119.87282c0 16.551483 -13.417633 29.9691 -29.9691 29.9691l-120.18778 0c-16.55148 0 -29.969103 -13.417618 -29.969103 -29.9691z" fill-rule="nonzero"></path><path fill="#ff0000" d="m28.883202 89.19423l131.20996 0l-65.60498 67.860886z" fill-rule="nonzero"></path><path fill="#ff0000" d="m40.475067 71.811264l108.031494 0l11.590546 11.590553l0 11.590546l0 0l-131.21259 0l0 0l0 -11.590546z" fill-rule="nonzero"></path><path fill="#000000" fill-opacity="0.0" d="m77.30971 160.49081c-0.7361145 7.38826 -3.9787216 14.403641 -7.2992096 21.044617" fill-rule="evenodd"></path><path stroke="#000000" stroke-width="3.0" stroke-linejoin="round" stroke-linecap="butt" d="m77.30971 160.49081c-0.7361145 7.38826 -3.9787216 14.403641 -7.2992096 21.044617" fill-rule="evenodd"></path><path fill="#000000" fill-opacity="0.0" d="m111.026245 160.91864c1.0040894 7.376953 4.0208817 14.739227 8.590553 20.61679" fill-rule="evenodd"></path><path stroke="#000000" stroke-width="3.0" stroke-linejoin="round" stroke-linecap="butt" d="m111.026245 160.91864c1.0040894 7.376953 4.0208817 14.739227 8.590553 20.61679" fill-rule="evenodd"></path><path fill="#ff0000" d="m72.585304 145.67717l0 0c0 -13.52446 9.786278 -24.48819 21.858269 -24.48819l0 0c5.7971725 0 11.356903 2.5799942 15.456123 7.1724243c4.0992203 4.5924225 6.4021378 10.821091 6.4021378 17.315765l0 0c0 13.524445 -9.786278 24.48819 -21.858261 24.48819l0 0c-12.071991 0 -21.858269 -10.963745 -21.858269 -24.48819z" fill-rule="nonzero"></path><path fill="#3c78d8" d="m125.6943 168.34041l0 0c14.5956955 1.6854401 33.359932 -14.460007 42.75727 -36.789948c9.397339 -22.32994 6.157486 -43.073517 -7.3825073 -47.267494c-13.539993 -4.1939774 -32.668198 9.621155 -43.586617 31.479942c-10.918419 21.858795 -9.827423 44.154358 2.486 50.80394z" fill-rule="nonzero"></path><path fill="#000000" fill-opacity="0.0" d="m157.6273 83.82436c18.60431 15.821243 20.701187 42.856277 26.834167 65.50077" fill-rule="evenodd"></path><path stroke="#000000" stroke-width="3.0" stroke-linejoin="round" stroke-linecap="butt" d="m157.6273 83.82436c18.60431 15.821243 20.701187 42.856277 26.834167 65.50077" fill-rule="evenodd"></path><path fill="#3c78d8" d="m62.315205 168.39468l0 0c-14.579037 1.7270203 -33.30324 -14.318726 -42.662575 -36.55977c-9.359332 -22.241043 -6.0955725 -42.93473 7.4363823 -47.14998c13.531956 -4.2152405 32.621296 9.5153885 43.494522 31.284851c10.873222 21.76947 9.745087 43.999268 -2.5704193 50.64998z" fill-rule="nonzero"></path><path fill="#ffff00" d="m40.375328 60.2021l108.22047 0l0 11.622051l-108.22047 0z" fill-rule="nonzero"></path><path fill="#ff0000" d="m52.614174 60.2021l10.9606285 0l0 11.622051l-10.9606285 0z" fill-rule="nonzero"></path><path fill="#ff0000" d="m125.08924 60.2021l10.960625 0l0 11.622051l-10.960625 0z" fill-rule="nonzero"></path><path fill="#000000" fill-opacity="0.0" d="m41.75853 59.987175c0.7215233 -18.038307 -2.348507 -41.816345 -17.178476 -51.107845" fill-rule="evenodd"></path><path stroke="#000000" stroke-width="3.0" stroke-linejoin="round" stroke-linecap="butt" d="m41.75853 59.987175c0.7215233 -18.038307 -2.348507 -41.816345 -17.178476 -51.107845" fill-rule="evenodd"></path><path fill="#000000" fill-opacity="0.0" d="m146.88715 60.2021c0 -17.679409 8.476593 -35.433754 19.32808 -49.391075" fill-rule="evenodd"></path><path stroke="#000000" stroke-width="3.0" stroke-linejoin="round" stroke-linecap="butt" d="m146.88715 60.2021c0 -17.679409 8.476593 -35.433754 19.32808 -49.391075" fill-rule="evenodd"></path><path fill="#000000" fill-opacity="0.0" d="m28.992126 83.82415c-10.898302 14.923798 -16.153107 33.413635 -21.475067 51.110237" fill-rule="evenodd"></path><path stroke="#000000" stroke-width="3.0" stroke-linejoin="round" stroke-linecap="butt" d="m28.992126 83.82415c-10.898302 14.923798 -16.153107 33.413635 -21.475067 51.110237" fill-rule="evenodd"></path><path fill="#000000" fill-opacity="0.0" d="m25.55643 113.24672c-5.507347 6.4233704 -9.637738 14.139465 -12.454068 22.118103" fill-rule="evenodd"></path><path stroke="#000000" stroke-width="3.0" stroke-linejoin="round" stroke-linecap="butt" d="m25.55643 113.24672c-5.507347 6.4233704 -9.637738 14.139465 -12.454068 22.118103" fill-rule="evenodd"></path><path fill="#000000" fill-opacity="0.0" d="m42.307087 20.905512c3.2631454 5.2218285 8.9459305 9.798649 15.031494 10.737534" fill-rule="evenodd"></path><path stroke="#000000" stroke-width="4.0" stroke-linejoin="round" stroke-linecap="butt" d="m42.307087 20.905512c3.2631454 5.2218285 8.9459305 9.798649 15.031494 10.737534" fill-rule="evenodd"></path><path fill="#000000" fill-opacity="0.0" d="m47.24672 45.816273c3.7346306 4.478821 9.26009 7.2066765 13.099739 11.595802" fill-rule="evenodd"></path><path stroke="#000000" stroke-width="4.0" stroke-linejoin="round" stroke-linecap="butt" d="m47.24672 45.816273c3.7346306 4.478821 9.26009 7.2066765 13.099739 11.595802" fill-rule="evenodd"></path><path fill="#000000" fill-opacity="0.0" d="m151.61154 22.83727c-4.0721283 4.0721283 -8.857025 7.6650867 -14.173218 9.879263" fill-rule="evenodd"></path><path stroke="#000000" stroke-width="4.0" stroke-linejoin="round" stroke-linecap="butt" d="m151.61154 22.83727c-4.0721283 4.0721283 -8.857025 7.6650867 -14.173218 9.879263" fill-rule="evenodd"></path><path fill="#000000" fill-opacity="0.0" d="m142.59317 44.097115c-3.3151093 4.9726677 -7.115631 10.026741 -12.24147 13.099735" fill-rule="evenodd"></path><path stroke="#000000" stroke-width="4.0" stroke-linejoin="round" stroke-linecap="butt" d="m142.59317 44.097115c-3.3151093 4.9726677 -7.115631 10.026741 -12.24147 13.099735" fill-rule="evenodd"></path><path fill="#6d9eeb" d="m73.49606 32.066994l0 0c0 -1.7801037 1.4430618 -3.2231617 3.2231598 -3.2231617l12.892258 0l0 0c0.8548355 0 1.6746597 0.33958244 2.2791214 0.9440422c0.60446167 0.60445976 0.944046 1.424284 0.944046 2.2791195l0 14.183598c0 1.7801018 -1.4430618 3.2231636 -3.2231674 3.2231636l-12.892258 0c-1.780098 0 -3.2231598 -1.4430618 -3.2231598 -3.2231636z" fill-rule="nonzero"></path><path stroke="#000000" stroke-width="3.0" stroke-linejoin="round" stroke-linecap="butt" d="m73.49606 32.066994l0 0c0 -1.7801037 1.4430618 -3.2231617 3.2231598 -3.2231617l12.892258 0l0 0c0.8548355 0 1.6746597 0.33958244 2.2791214 0.9440422c0.60446167 0.60445976 0.944046 1.424284 0.944046 2.2791195l0 14.183598c0 1.7801018 -1.4430618 3.2231636 -3.2231674 3.2231636l-12.892258 0c-1.780098 0 -3.2231598 -1.4430618 -3.2231598 -3.2231636z" fill-rule="nonzero"></path><path fill="#6d9eeb" d="m94.855644 32.066994l0 0c0 -1.7801037 1.4430542 -3.2231617 3.2231598 -3.2231617l12.892258 0l0 0c0.8548355 0 1.6746597 0.33958244 2.2791214 0.9440422c0.60446167 0.60445976 0.944046 1.424284 0.944046 2.2791195l0 14.183598c0 1.7801018 -1.4430618 3.2231636 -3.2231674 3.2231636l-12.892258 0c-1.7801056 0 -3.2231598 -1.4430618 -3.2231598 -3.2231636z" fill-rule="nonzero"></path><path stroke="#000000" stroke-width="3.0" stroke-linejoin="round" stroke-linecap="butt" d="m94.855644 32.066994l0 0c0 -1.7801037 1.4430542 -3.2231617 3.2231598 -3.2231617l12.892258 0l0 0c0.8548355 0 1.6746597 0.33958244 2.2791214 0.9440422c0.60446167 0.60445976 0.944046 1.424284 0.944046 2.2791195l0 14.183598c0 1.7801018 -1.4430618 3.2231636 -3.2231674 3.2231636l-12.892258 0c-1.7801056 0 -3.2231598 -1.4430618 -3.2231598 -3.2231636z" fill-rule="nonzero"></path><path fill="#6d9eeb" d="m73.49606 9.303214l0 0c0 -1.7801032 1.4430618 -3.2231617 3.2231598 -3.2231617l12.892258 0l0 0c0.8548355 0 1.6746597 0.33958244 2.2791214 0.9440422c0.60446167 0.60446024 0.944046 1.424284 0.944046 2.2791195l0 14.1835985c0 1.7801018 -1.4430618 3.2231617 -3.2231674 3.2231617l-12.892258 0c-1.780098 0 -3.2231598 -1.4430599 -3.2231598 -3.2231617z" fill-rule="nonzero"></path><path stroke="#000000" stroke-width="3.0" stroke-linejoin="round" stroke-linecap="butt" d="m73.49606 9.303214l0 0c0 -1.7801032 1.4430618 -3.2231617 3.2231598 -3.2231617l12.892258 0l0 0c0.8548355 0 1.6746597 0.33958244 2.2791214 0.9440422c0.60446167 0.60446024 0.944046 1.424284 0.944046 2.2791195l0 14.1835985c0 1.7801018 -1.4430618 3.2231617 -3.2231674 3.2231617l-12.892258 0c-1.780098 0 -3.2231598 -1.4430599 -3.2231598 -3.2231617z" fill-rule="nonzero"></path><path fill="#6d9eeb" d="m94.855644 9.303214l0 0c0 -1.7801032 1.4430542 -3.2231617 3.2231598 -3.2231617l12.892258 0l0 0c0.8548355 0 1.6746597 0.33958244 2.2791214 0.9440422c0.60446167 0.60446024 0.944046 1.424284 0.944046 2.2791195l0 14.1835985c0 1.7801018 -1.4430618 3.2231617 -3.2231674 3.2231617l-12.892258 0c-1.7801056 0 -3.2231598 -1.4430599 -3.2231598 -3.2231617z" fill-rule="nonzero"></path><path stroke="#000000" stroke-width="3.0" stroke-linejoin="round" stroke-linecap="butt" d="m94.855644 9.303214l0 0c0 -1.7801032 1.4430542 -3.2231617 3.2231598 -3.2231617l12.892258 0l0 0c0.8548355 0 1.6746597 0.33958244 2.2791214 0.9440422c0.60446167 0.60446024 0.944046 1.424284 0.944046 2.2791195l0 14.1835985c0 1.7801018 -1.4430618 3.2231617 -3.2231674 3.2231617l-12.892258 0c-1.7801056 0 -3.2231598 -1.4430599 -3.2231598 -3.2231617z" fill-rule="nonzero"></path></g></svg>

