<?xml version="1.0" standalone="yes"?>

<svg version="1.1" viewBox="0.0 0.0 188.9763779527559 188.9763779527559" fill="none" stroke="none" stroke-linecap="square" stroke-miterlimit="10" xmlns="http://www.w3.org/2000/svg" xmlns:xlink="http://www.w3.org/1999/xlink"><clipPath id="p.0"><path d="m0 0l188.97638 0l0 188.97638l-188.97638 0l0 -188.97638z" clip-rule="nonzero"></path></clipPath><g clip-path="url(#p.0)"><path fill="#000000" fill-opacity="0.0" d="m0 0l188.97638 0l0 188.97638l-188.97638 0z" fill-rule="nonzero"></path><path fill="#3c78d8" d="m4.335958 34.47829l0 0c0 -16.55148 13.4176235 -29.969105 29.969103 -29.969105l120.18778 0l0 0c7.948303 0 15.57106 3.1574502 21.191345 8.777748c5.6203003 5.6202965 8.777756 13.243055 8.777756 21.191357l0 119.87282c0 16.551483 -13.417633 29.9691 -29.9691 29.9691l-120.18778 0c-16.55148 0 -29.969103 -13.417618 -29.969103 -29.9691z" fill-rule="nonzero"></path><path stroke="#000000" stroke-width="8.0" stroke-linejoin="round" stroke-linecap="butt" d="m4.335958 34.47829l0 0c0 -16.55148 13.4176235 -29.969105 29.969103 -29.969105l120.18778 0l0 0c7.948303 0 15.57106 3.1574502 21.191345 8.777748c5.6203003 5.6202965 8.777756 13.243055 8.777756 21.191357l0 119.87282c0 16.551483 -13.417633 29.9691 -29.9691 29.9691l-120.18778 0c-16.55148 0 -29.969103 -13.417618 -29.969103 -29.9691z" fill-rule="nonzero"></path><path fill="#000000" d="m46.196674 23.288027l0 0c5.575035 -7.375393 16.07343 -8.834874 23.448818 -3.259842l0 0c3.5417938 2.677225 5.8749924 6.6517677 6.4863358 11.049274c0.61133575 4.397505 -0.549263 8.857756 -3.2264938 12.399546l0 0c-5.5750275 7.375393 -16.073421 8.834873 -23.448814 3.259842l0 0c-7.375393 -5.5750313 -8.834877 -16.073427 -3.2598457 -23.44882z" fill-rule="nonzero"></path><path fill="#ff0000" d="m106.07412 73.467224l-43.015244 -3.4829636c4.751335 0.38471985 6.7349625 23.77073 4.430565 52.234108c-2.3043976 28.463379 -8.024197 51.225647 -12.775528 50.840927l43.015244 3.4829712l0 0c4.751335 0.3847046 10.47113 -22.377548 12.775528 -50.840927c2.3043976 -28.463387 0.32077026 -51.849396 -4.430565 -52.234116z" fill-rule="nonzero"></path><path fill="#ff0000" d="m60.09585 86.02821l21.971897 -37.318123c-2.4269485 4.1220474 15.559662 19.212425 40.174225 33.7053c24.614563 14.492882 46.53604 22.9001 48.962982 18.778053l-21.971893 37.318123l0 0c-2.4269562 4.12204 -24.348427 -4.2851715 -48.962982 -18.778053c-24.614563 -14.492874 -42.601177 -29.583252 -40.17423 -33.7053z" fill-rule="nonzero"></path><path fill="#ff0000" d="m95.33847 175.299l-33.695152 -39.46759c3.7218628 4.359482 19.574348 -3.0664978 35.407524 -16.586372c15.833168 -13.519875 25.651321 -28.013939 21.929459 -32.373413l33.69516 39.46759l0 0c3.7218628 4.359474 -6.096298 18.853539 -21.929474 32.373405c-15.833168 13.519882 -31.685654 20.945847 -35.407516 16.58638z" fill-rule="nonzero"></path><path fill="#ff0000" d="m166.03265 109.9351l-106.083145 62.956398l2.2106056 -117.128265z" fill-rule="nonzero"></path><path fill="#000000" fill-opacity="0.0" d="m98.86753 149.40533l-18.330711 -66.23623" fill-rule="nonzero"></path><path stroke="#000000" stroke-width="8.0" stroke-linejoin="round" stroke-linecap="butt" d="m98.86753 149.40533l-18.330711 -66.23623" fill-rule="nonzero"></path><path fill="#000000" fill-opacity="0.0" d="m86.59916 53.36588l3.7480316 11.653545" fill-rule="nonzero"></path><path stroke="#000000" stroke-width="8.0" stroke-linejoin="round" stroke-linecap="butt" d="m86.59916 53.36588l3.7480316 11.653545" fill-rule="nonzero"></path><path fill="#000000" fill-opacity="0.0" d="m71.05227 55.033836l19.275597 -4.3464584" fill-rule="nonzero"></path><path stroke="#000000" stroke-width="8.0" stroke-linejoin="round" stroke-linecap="butt" d="m71.05227 55.033836l19.275597 -4.3464584" fill-rule="nonzero"></path><path fill="#000000" d="m50.76134 61.377037l0 0c-0.7290497 -2.2058372 0.4684868 -4.5839386 2.6747704 -5.311634l15.978844 -5.2702904l0 0c1.059494 -0.34945297 2.214676 -0.26379395 3.2114105 0.23813248c0.9967346 0.5019226 1.7533798 1.3789978 2.1034775 2.4382782l10.871696 32.89385c0.7290497 2.2058334 -0.4684906 4.5839386 -2.6747742 5.3116302l-15.978844 5.2702866c-2.2062836 0.7276993 -4.5858383 -0.47057343 -5.314888 -2.6764069z" fill-rule="nonzero"></path><path fill="#000000" fill-opacity="0.0" d="m20.745638 35.444782l36.409447 29.606297" fill-rule="nonzero"></path><path stroke="#000000" stroke-width="8.0" stroke-linejoin="round" stroke-linecap="butt" d="m20.745638 35.444782l36.409447 29.606297" fill-rule="nonzero"></path><path fill="#000000" fill-opacity="0.0" d="m62.39079 124.15356l-16.818897 -22.173233" fill-rule="nonzero"></path><path stroke="#000000" stroke-width="8.0" stroke-linejoin="round" stroke-linecap="butt" d="m62.39079 124.15356l-16.818897 -22.173233" fill-rule="nonzero"></path><path fill="#000000" fill-opacity="0.0" d="m44.821407 107.293304l23.968502 -16.7874" fill-rule="nonzero"></path><path stroke="#000000" stroke-width="8.0" stroke-linejoin="round" stroke-linecap="butt" d="m44.821407 107.293304l23.968502 -16.7874" fill-rule="nonzero"></path><path fill="#ff0000" d="m58.312416 59.94733l-5.480316 -2.5511818l7.7795296 -2.4251976z" fill-rule="nonzero"></path><path fill="#ff0000" d="m68.753365 56.624493l-5.48032 -2.551178l7.7795296 -2.4251976z" fill-rule="nonzero"></path><path fill="#000000" fill-opacity="0.0" d="m118.1811 84.08268c11.998405 11.238197 26.214302 20.373444 41.233604 27.05774" fill-rule="evenodd"></path><path stroke="#ffffff" stroke-width="2.0" stroke-linejoin="round" stroke-linecap="butt" d="m118.1811 84.08268c11.998405 11.238197 26.214302 20.373444 41.233604 27.05774" fill-rule="evenodd"></path></g></svg>

