<?xml version="1.0" standalone="yes"?>

<svg version="1.1" viewBox="0.0 0.0 188.9763779527559 188.9763779527559" fill="none" stroke="none" stroke-linecap="square" stroke-miterlimit="10" xmlns="http://www.w3.org/2000/svg" xmlns:xlink="http://www.w3.org/1999/xlink"><clipPath id="p.0"><path d="m0 0l188.97638 0l0 188.97638l-188.97638 0l0 -188.97638z" clip-rule="nonzero"></path></clipPath><g clip-path="url(#p.0)"><path fill="#000000" fill-opacity="0.0" d="m0 0l188.97638 0l0 188.97638l-188.97638 0z" fill-rule="nonzero"></path><path fill="#fe2e2e" d="m4.335958 34.47829l0 0c0 -16.55148 13.4176235 -29.969105 29.969103 -29.969105l120.18778 0l0 0c7.948303 0 15.57106 3.1574502 21.191345 8.777748c5.6203003 5.6202965 8.777756 13.243055 8.777756 21.191357l0 119.87282c0 16.551483 -13.417633 29.9691 -29.9691 29.9691l-120.18778 0c-16.55148 0 -29.969103 -13.417618 -29.969103 -29.9691z" fill-rule="nonzero"></path><path stroke="#000000" stroke-width="8.0" stroke-linejoin="round" stroke-linecap="butt" d="m4.335958 34.47829l0 0c0 -16.55148 13.4176235 -29.969105 29.969103 -29.969105l120.18778 0l0 0c7.948303 0 15.57106 3.1574502 21.191345 8.777748c5.6203003 5.6202965 8.777756 13.243055 8.777756 21.191357l0 119.87282c0 16.551483 -13.417633 29.9691 -29.9691 29.9691l-120.18778 0c-16.55148 0 -29.969103 -13.417618 -29.969103 -29.9691z" fill-rule="nonzero"></path><path fill="#ffffff" d="m148.2663 74.43543l0 0c0 -6.262123 5.584091 -11.338577 12.472443 -11.338577l0 0c6.888336 0 12.472443 5.076454 12.472443 11.338577l0 0c0 6.2621307 -5.5841064 11.338585 -12.472443 11.338585l0 0c-6.8883514 0 -12.472443 -5.076454 -12.472443 -11.338585z" fill-rule="nonzero"></path><path fill="#ffffff" d="m146.71507 93.27687l0 0c0 -2.4788055 2.0094757 -4.4882736 4.4882812 -4.4882736l17.952576 0l0 0c1.1903687 0 2.3319702 0.47286987 3.1736908 1.3145828c0.8417206 0.84171295 1.3145905 1.9833298 1.3145905 3.1736908l0 28.881714c0 2.4788055 -2.0094757 4.4882736 -4.4882812 4.4882736l-17.952576 0c-2.4788055 0 -4.4882812 -2.009468 -4.4882812 -4.4882736z" fill-rule="nonzero"></path><path fill="#ffffff" d="m63.198795 117.074165l0 0c0 -6.262123 5.5841026 -11.338577 12.472439 -11.338577l0 0c6.888344 0 12.472443 5.076454 12.472443 11.338577l0 0c0 6.2621307 -5.584099 11.338585 -12.472443 11.338585l0 0c-6.888336 0 -12.472439 -5.076454 -12.472439 -11.338585z" fill-rule="nonzero"></path><path fill="#ffffff" d="m61.64758 135.9156l0 0c0 -2.4788055 2.009472 -4.4882812 4.4882774 -4.4882812l17.952576 0l0 0c1.1903687 0 2.3319778 0.47286987 3.1736908 1.3145905c0.8417206 0.8417206 1.3145905 1.9833221 1.3145905 3.1736908l0 28.881714c0 2.4788055 -2.0094757 4.4882812 -4.4882812 4.4882812l-17.952576 0c-2.4788055 0 -4.4882774 -2.0094757 -4.4882774 -4.4882812z" fill-rule="nonzero"></path><path fill="#ffffff" d="m16.758568 74.27261l0 0c0 -6.262123 5.5841007 -11.338581 12.472441 -11.338581l0 0c6.888338 0 12.472441 5.076458 12.472441 11.338581l0 0c0 6.2621307 -5.5841026 11.338585 -12.472441 11.338585l0 0c-6.88834 0 -12.472441 -5.076454 -12.472441 -11.338585z" fill-rule="nonzero"></path><path fill="#ffffff" d="m15.207349 93.11405l0 0c0 -2.4788055 2.009471 -4.4882736 4.4882784 -4.4882736l17.952578 0l0 0c1.1903648 0 2.3319778 0.47286987 3.1736908 1.3145828c0.84171677 0.84171295 1.3145866 1.9833298 1.3145866 3.1736908l0 28.881714c0 2.4788055 -2.009472 4.4882736 -4.4882774 4.4882736l-17.952578 0c-2.4788074 0 -4.4882784 -2.009468 -4.4882784 -4.4882736z" fill-rule="nonzero"></path><path fill="#434343" d="m101.8016 36.367455l0 0c0 -6.262127 5.5841064 -11.338583 12.472443 -11.338583l0 0c6.888336 0 12.472443 5.076456 12.472443 11.338583l0 0c0 6.262127 -5.5841064 11.338581 -12.472443 11.338581l0 0c-6.888336 0 -12.472443 -5.076454 -12.472443 -11.338581z" fill-rule="nonzero"></path><path fill="#434343" d="m100.25038 55.208893l0 0c0 -2.4788094 2.009468 -4.4882812 4.4882736 -4.4882812l17.952576 0l0 0c1.1903687 0 2.3319778 0.4728737 3.1736984 1.3145866c0.84171295 0.84171677 1.3145828 1.983326 1.3145828 3.1736946l0 28.881706c0 2.4788132 -2.009468 4.4882812 -4.4882812 4.4882812l-17.952576 0c-2.4788055 0 -4.4882736 -2.009468 -4.4882736 -4.4882812z" fill-rule="nonzero"></path><path fill="#ffffff" d="m53.093647 114.415565l18.050022 -39.380676l72.20011 0l-18.050026 39.380676z" fill-rule="nonzero"></path></g></svg>

