<?xml version="1.0" standalone="yes"?>

<svg version="1.1" viewBox="0.0 0.0 188.9763779527559 188.9763779527559" fill="none" stroke="none" stroke-linecap="square" stroke-miterlimit="10" xmlns="http://www.w3.org/2000/svg" xmlns:xlink="http://www.w3.org/1999/xlink"><clipPath id="p.0"><path d="m0 0l188.97638 0l0 188.97638l-188.97638 0l0 -188.97638z" clip-rule="nonzero"></path></clipPath><g clip-path="url(#p.0)"><path fill="#000000" fill-opacity="0.0" d="m0 0l188.97638 0l0 188.97638l-188.97638 0z" fill-rule="nonzero"></path><path fill="#fe2e2e" d="m4.335958 34.47829l0 0c0 -16.55148 13.4176235 -29.969105 29.969103 -29.969105l120.18778 0l0 0c7.948303 0 15.57106 3.1574502 21.191345 8.777748c5.6203003 5.6202965 8.777756 13.243055 8.777756 21.191357l0 119.87282c0 16.551483 -13.417633 29.9691 -29.9691 29.9691l-120.18778 0c-16.55148 0 -29.969103 -13.417618 -29.969103 -29.9691z" fill-rule="nonzero"></path><path stroke="#000000" stroke-width="8.0" stroke-linejoin="round" stroke-linecap="butt" d="m4.335958 34.47829l0 0c0 -16.55148 13.4176235 -29.969105 29.969103 -29.969105l120.18778 0l0 0c7.948303 0 15.57106 3.1574502 21.191345 8.777748c5.6203003 5.6202965 8.777756 13.243055 8.777756 21.191357l0 119.87282c0 16.551483 -13.417633 29.9691 -29.9691 29.9691l-120.18778 0c-16.55148 0 -29.969103 -13.417618 -29.969103 -29.9691z" fill-rule="nonzero"></path><path fill="#434343" d="m13.999748 94.917206l0 0c-0.08793354 -13.557617 5.0695686 -26.59114 14.328703 -36.21007c9.259134 -9.618927 21.854593 -15.0282135 34.993027 -15.0282135l0 50.89764z" fill-rule="nonzero"></path><path fill="#fe2e2e" d="m21.422981 85.182625l0 0c-0.07812691 -8.735947 3.8160954 -17.13771 10.817814 -23.339375c7.0017204 -6.201664 16.531307 -9.689831 26.472374 -9.689831l0 32.771652z" fill-rule="nonzero"></path><path fill="#434343" d="m13.998644 95.83403l0 0c0 -3.557312 2.8837662 -6.441078 6.4410725 -6.441078l36.50368 0c1.7082787 0 3.346592 0.67861176 4.5545273 1.8865509c1.2079353 1.2079315 1.8865471 2.8462448 1.8865471 4.5545273l0 25.76352c0 3.5573044 -2.88377 6.4410706 -6.4410744 6.4410706l-36.50368 0l0 0c-3.5573063 0 -6.4410725 -2.8837662 -6.4410725 -6.4410706z" fill-rule="nonzero"></path><path fill="#434343" d="m57.475574 107.202484l117.322845 0l0 20.913391l-117.322845 0z" fill-rule="nonzero"></path><path fill="#434343" d="m20.87867 128.43585l0 0c0 -10.236832 8.016571 -18.53543 17.905514 -18.53543l0 0c4.7488365 0 9.303173 1.9528351 12.661106 5.4289017c3.3579369 3.4760666 5.244404 8.190628 5.244404 13.106529l0 0c0 10.236847 -8.016571 18.53543 -17.90551 18.53543l0 0c-9.888943 0 -17.905514 -8.298584 -17.905514 -18.53543z" fill-rule="nonzero"></path><path stroke="#fe2e2e" stroke-width="4.0" stroke-linejoin="round" stroke-linecap="butt" d="m20.87867 128.43585l0 0c0 -10.236832 8.016571 -18.53543 17.905514 -18.53543l0 0c4.7488365 0 9.303173 1.9528351 12.661106 5.4289017c3.3579369 3.4760666 5.244404 8.190628 5.244404 13.106529l0 0c0 10.236847 -8.016571 18.53543 -17.90551 18.53543l0 0c-9.888943 0 -17.905514 -8.298584 -17.905514 -18.53543z" fill-rule="nonzero"></path><path fill="#434343" d="m127.65183 128.43585l0 0c0 -10.236832 8.016563 -18.53543 17.90551 -18.53543l0 0c4.7488403 0 9.303177 1.9528351 12.661102 5.4289017c3.3579407 3.4760666 5.2444153 8.190628 5.2444153 13.106529l0 0c0 10.236847 -8.016571 18.53543 -17.905518 18.53543l0 0c-9.888947 0 -17.90551 -8.298584 -17.90551 -18.53543z" fill-rule="nonzero"></path><path stroke="#fe2e2e" stroke-width="4.0" stroke-linejoin="round" stroke-linecap="butt" d="m127.65183 128.43585l0 0c0 -10.236832 8.016563 -18.53543 17.90551 -18.53543l0 0c4.7488403 0 9.303177 1.9528351 12.661102 5.4289017c3.3579407 3.4760666 5.2444153 8.190628 5.2444153 13.106529l0 0c0 10.236847 -8.016571 18.53543 -17.905518 18.53543l0 0c-9.888947 0 -17.90551 -8.298584 -17.90551 -18.53543z" fill-rule="nonzero"></path><path fill="#ffffff" d="m67.39096 71.911316l33.102364 0l0 30.078735l-33.102364 0z" fill-rule="nonzero"></path><path fill="#ffffff" d="m104.47904 71.911316l33.102364 0l0 30.078735l-33.102364 0z" fill-rule="nonzero"></path><path fill="#ffffff" d="m141.56712 71.911316l33.10237 0l0 30.078735l-33.10237 0z" fill-rule="nonzero"></path><path fill="#ffffff" d="m85.545784 36.614296l33.102364 0l0 30.078743l-33.102364 0z" fill-rule="nonzero"></path><path fill="#434343" d="m122.567894 36.614296l33.102364 0l0 30.078743l-33.102364 0z" fill-rule="nonzero"></path></g></svg>

