<?xml version="1.0" standalone="yes"?>

<svg version="1.1" viewBox="0.0 0.0 188.9763779527559 188.9763779527559" fill="none" stroke="none" stroke-linecap="square" stroke-miterlimit="10" xmlns="http://www.w3.org/2000/svg" xmlns:xlink="http://www.w3.org/1999/xlink"><clipPath id="p.0"><path d="m0 0l188.97638 0l0 188.97638l-188.97638 0l0 -188.97638z" clip-rule="nonzero"></path></clipPath><g clip-path="url(#p.0)"><path fill="#000000" fill-opacity="0.0" d="m0 0l188.97638 0l0 188.97638l-188.97638 0z" fill-rule="nonzero"></path><path fill="#fe2e2e" d="m4.335958 34.47829l0 0c0 -16.55148 13.4176235 -29.969105 29.969103 -29.969105l120.18778 0l0 0c7.948303 0 15.57106 3.1574502 21.191345 8.777748c5.6203003 5.6202965 8.777756 13.243055 8.777756 21.191357l0 119.87282c0 16.551483 -13.417633 29.9691 -29.9691 29.9691l-120.18778 0c-16.55148 0 -29.969103 -13.417618 -29.969103 -29.9691z" fill-rule="nonzero"></path><path stroke="#000000" stroke-width="8.0" stroke-linejoin="round" stroke-linecap="butt" d="m4.335958 34.47829l0 0c0 -16.55148 13.4176235 -29.969105 29.969103 -29.969105l120.18778 0l0 0c7.948303 0 15.57106 3.1574502 21.191345 8.777748c5.6203003 5.6202965 8.777756 13.243055 8.777756 21.191357l0 119.87282c0 16.551483 -13.417633 29.9691 -29.9691 29.9691l-120.18778 0c-16.55148 0 -29.969103 -13.417618 -29.969103 -29.9691z" fill-rule="nonzero"></path><path fill="#434343" d="m69.829124 101.117424l44.996925 0l11.249565 11.249565l0 61.8528l0 0l-67.49606 0l0 0l0 -61.8528z" fill-rule="nonzero"></path><path fill="#ffffff" d="m111.64066 101.1539l-19.322838 59.968506l-19.32283 -59.968506z" fill-rule="nonzero"></path><path fill="#ffffff" d="m54.856636 65.5718l0 0c0 -20.569347 17.70414 -37.244095 39.543304 -37.244095l0 0c10.487541 0 20.545532 3.9239216 27.961342 10.908545c7.415802 6.984619 11.58197 16.457802 11.58197 26.335552l0 0c0 20.569344 -17.704147 37.244095 -39.543312 37.244095l0 0c-21.839165 0 -39.543304 -16.674751 -39.543304 -37.244095z" fill-rule="nonzero"></path><path stroke="#ffffff" stroke-width="1.0" stroke-linejoin="round" stroke-linecap="butt" d="m54.856636 65.5718l0 0c0 -20.569347 17.70414 -37.244095 39.543304 -37.244095l0 0c10.487541 0 20.545532 3.9239216 27.961342 10.908545c7.415802 6.984619 11.58197 16.457802 11.58197 26.335552l0 0c0 20.569344 -17.704147 37.244095 -39.543312 37.244095l0 0c-21.839165 0 -39.543304 -16.674751 -39.543304 -37.244095z" fill-rule="nonzero"></path><path fill="#666666" d="m61.51785 18.8316l0 0c0 2.330902 14.425594 4.2204723 32.22047 4.2204723c17.794876 0 32.220474 -1.8895702 32.220474 -4.2204723l0 25.322834c0 2.330902 -14.425598 4.2204742 -32.220474 4.2204742c-17.794876 0 -32.22047 -1.8895721 -32.22047 -4.2204742z" fill-rule="nonzero"></path><path fill="#a3a3a3" d="m61.51785 18.8316l0 0c0 -2.330902 14.425594 -4.2204723 32.22047 -4.2204723c17.794876 0 32.220474 1.8895702 32.220474 4.2204723l0 0c0 2.330902 -14.425598 4.2204723 -32.220474 4.2204723c-17.794876 0 -32.22047 -1.8895702 -32.22047 -4.2204723z" fill-rule="nonzero"></path><path fill="#000000" fill-opacity="0.0" d="m125.95879 18.8316l0 0c0 2.330902 -14.425598 4.2204723 -32.220474 4.2204723c-17.794876 0 -32.22047 -1.8895702 -32.22047 -4.2204723l0 0c0 -2.330902 14.425594 -4.2204723 32.22047 -4.2204723c17.794876 0 32.220474 1.8895702 32.220474 4.2204723l0 25.322834c0 2.330902 -14.425598 4.2204742 -32.220474 4.2204742c-17.794876 0 -32.22047 -1.8895721 -32.22047 -4.2204742l0 -25.322834" fill-rule="nonzero"></path><path stroke="#ffffff" stroke-width="4.0" stroke-linejoin="round" stroke-linecap="butt" d="m125.95879 18.8316l0 0c0 2.330902 -14.425598 4.2204723 -32.220474 4.2204723c-17.794876 0 -32.22047 -1.8895702 -32.22047 -4.2204723l0 0c0 -2.330902 14.425594 -4.2204723 32.22047 -4.2204723c17.794876 0 32.220474 1.8895702 32.220474 4.2204723l0 25.322834c0 2.330902 -14.425598 4.2204742 -32.220474 4.2204742c-17.794876 0 -32.22047 -1.8895721 -32.22047 -4.2204742l0 -25.322834" fill-rule="nonzero"></path><path fill="#000000" fill-opacity="0.0" d="m107.57539 129.98325l12.409454 0" fill-rule="nonzero"></path><path stroke="#ffffff" stroke-width="4.0" stroke-linejoin="round" stroke-linecap="butt" d="m107.57539 129.98325l12.409454 0" fill-rule="nonzero"></path><path fill="#434343" d="m87.82224 112.75445l0 0c0 -2.4265747 2.0305786 -4.3936996 4.535431 -4.3936996l0 0c1.2028732 0 2.3564758 0.46290588 3.2070312 1.2868805c0.85056305 0.82398224 1.3283997 1.941536 1.3283997 3.1068192l0 0c0 2.4265747 -2.0305786 4.3936996 -4.535431 4.3936996l0 0c-2.5048523 0 -4.535431 -1.9671249 -4.535431 -4.3936996z" fill-rule="nonzero"></path><path fill="#434343" d="m87.82224 126.96696l0 0c0 -2.4265747 2.0305786 -4.3936996 4.535431 -4.3936996l0 0c1.2028732 0 2.3564758 0.46290588 3.2070312 1.2868805c0.85056305 0.82398224 1.3283997 1.941536 1.3283997 3.1068192l0 0c0 2.426567 -2.0305786 4.3936996 -4.535431 4.3936996l0 0c-2.5048523 0 -4.535431 -1.9671326 -4.535431 -4.3936996z" fill-rule="nonzero"></path></g></svg>

