<?xml version="1.0" standalone="yes"?>

<svg version="1.1" viewBox="0.0 0.0 188.9763779527559 188.9763779527559" fill="none" stroke="none" stroke-linecap="square" stroke-miterlimit="10" xmlns="http://www.w3.org/2000/svg" xmlns:xlink="http://www.w3.org/1999/xlink"><clipPath id="p.0"><path d="m0 0l188.97638 0l0 188.97638l-188.97638 0l0 -188.97638z" clip-rule="nonzero"></path></clipPath><g clip-path="url(#p.0)"><path fill="#000000" fill-opacity="0.0" d="m0 0l188.97638 0l0 188.97638l-188.97638 0z" fill-rule="nonzero"></path><path fill="#fe2e2e" d="m4.335958 34.47829l0 0c0 -16.55148 13.4176235 -29.969105 29.969103 -29.969105l120.18778 0l0 0c7.948303 0 15.57106 3.1574502 21.191345 8.777748c5.6203003 5.6202965 8.777756 13.243055 8.777756 21.191357l0 119.87282c0 16.551483 -13.417633 29.9691 -29.9691 29.9691l-120.18778 0c-16.55148 0 -29.969103 -13.417618 -29.969103 -29.9691z" fill-rule="nonzero"></path><path stroke="#000000" stroke-width="8.0" stroke-linejoin="round" stroke-linecap="butt" d="m4.335958 34.47829l0 0c0 -16.55148 13.4176235 -29.969105 29.969103 -29.969105l120.18778 0l0 0c7.948303 0 15.57106 3.1574502 21.191345 8.777748c5.6203003 5.6202965 8.777756 13.243055 8.777756 21.191357l0 119.87282c0 16.551483 -13.417633 29.9691 -29.9691 29.9691l-120.18778 0c-16.55148 0 -29.969103 -13.417618 -29.969103 -29.9691z" fill-rule="nonzero"></path><path fill="#434343" d="m111.884155 41.289387l25.788147 -14.566792l-10.249207 28.806122l-25.788147 14.566795z" fill-rule="nonzero"></path><path fill="#434343" d="m109.381805 77.24449l15.917931 14.586632l-62.330334 75.01795l-15.917934 -14.586639z" fill-rule="nonzero"></path><path fill="#434343" d="m46.27666 153.19496l0 0c3.549118 -4.2715607 9.9895935 -4.4690094 14.385208 -0.44100952l0 0c4.3956184 4.0279846 5.0818443 10.756088 1.5327263 15.027634l0 0c-3.5491142 4.2715607 -9.98959 4.4690094 -14.385208 0.44102478l0 0c-4.3956146 -4.0279846 -5.0818405 -10.7561035 -1.5327263 -15.027649z" fill-rule="nonzero"></path><path fill="#fe2e2e" d="m50.145134 155.56862l0 0c1.9949265 -2.401001 5.5847054 -2.5398102 8.017994 -0.31002808l0 0c1.1685028 1.0707703 1.9085884 2.555725 2.057438 4.128174c0.1488533 1.5724487 -0.30572128 3.103592 -1.2637177 4.256607l0 0c-1.9949265 2.401001 -5.5847054 2.539795 -8.017994 0.31002808l0 0c-2.4332848 -2.229782 -2.7886467 -5.98378 -0.79372025 -8.384781z" fill-rule="nonzero"></path><path fill="#434343" d="m143.15959 69.94908l25.788132 -14.566788l-10.249207 28.806122l-25.788132 14.566795z" fill-rule="nonzero"></path><path fill="#434343" d="m137.74046 26.788506l10.89621 9.984898l-37.633408 45.293858l-10.89621 -9.984901z" fill-rule="nonzero"></path><path fill="#434343" d="m158.95544 46.219574l9.948715 9.116646l-37.633408 45.29386l-9.948715 -9.116646z" fill-rule="nonzero"></path><path fill="#434343" d="m125.523766 60.258476l13.549202 12.416l-15.792603 19.007248l-13.549194 -12.416z" fill-rule="nonzero"></path><path fill="#434343" d="m78.81988 106.001076l0 0c3.5855713 4.8963394 11.757324 4.613388 18.252113 -0.63199615c6.4947968 -5.245384 8.85318 -13.466873 5.2676086 -18.36322l46.88124 64.019485c3.5855713 4.896332 1.2271881 13.117828 -5.2676086 18.36322c-6.4947968 5.2453766 -14.66655 5.5283356 -18.252113 0.6319885z" fill-rule="nonzero"></path><path fill="#8e8e8e" d="m78.81988 106.001076l0 0c-3.5855713 -4.8963394 -1.2271805 -13.117828 5.2676086 -18.363213c6.4947968 -5.245384 14.666542 -5.528343 18.252113 -0.6320038l0 0c3.5855713 4.896347 1.2271881 13.117836 -5.2676086 18.36322c-6.494789 5.245384 -14.666542 5.5283356 -18.252113 0.63199615z" fill-rule="nonzero"></path><path fill="#000000" fill-opacity="0.0" d="m102.3396 87.00586l0 0c3.5855713 4.896347 1.2271881 13.117836 -5.2676086 18.36322c-6.494789 5.245384 -14.666542 5.5283356 -18.252113 0.63199615l0 0c-3.5855713 -4.8963394 -1.2271805 -13.117828 5.2676086 -18.363213c6.4947968 -5.245384 14.666542 -5.528343 18.252113 -0.6320038l46.88124 64.019485c3.5855713 4.896332 1.2271881 13.117828 -5.2676086 18.36322c-6.4947968 5.2453766 -14.66655 5.5283356 -18.252113 0.6319885l-46.88124 -64.01948" fill-rule="nonzero"></path><path fill="#434343" d="m53.883568 55.2714l0 0c1.320179 1.8027954 4.219784 1.7867813 6.476452 -0.0357666c2.2566643 -1.8225479 3.0158348 -4.761471 1.6956558 -6.5642624l30.547192 41.71424c1.3201752 1.8027954 0.56100464 4.7417145 -1.6956635 6.5642624c-2.2566605 1.8225479 -5.1562653 1.838562 -6.476448 0.0357666z" fill-rule="nonzero"></path><path fill="#8e8e8e" d="m53.883568 55.2714l0 0c-1.320179 -1.8027916 -0.56100845 -4.7417145 1.6956596 -6.5642624c2.2566643 -1.8225479 5.156269 -1.838562 6.476448 -0.0357666l0 0c1.320179 1.8027916 0.56100845 4.7417145 -1.6956558 6.5642624c-2.256668 1.8225479 -5.156273 1.838562 -6.476452 0.0357666z" fill-rule="nonzero"></path><path fill="#000000" fill-opacity="0.0" d="m62.055676 48.67137l0 0c1.320179 1.8027916 0.56100845 4.7417145 -1.6956558 6.5642624c-2.256668 1.8225479 -5.156273 1.838562 -6.476452 0.0357666l0 0c-1.320179 -1.8027916 -0.56100845 -4.7417145 1.6956596 -6.5642624c2.2566643 -1.8225479 5.156269 -1.838562 6.476448 -0.0357666l30.547192 41.71424c1.3201752 1.8027954 0.56100464 4.7417145 -1.6956635 6.5642624c-2.2566605 1.8225479 -5.1562653 1.838562 -6.476448 0.0357666l-30.547188 -41.71424" fill-rule="nonzero"></path><path fill="#434343" d="m40.558872 75.15608l0 0c1.3078194 -1.0562286 -0.85261536 -6.310463 -4.825466 -11.735657c-3.972849 -5.425194 -8.253675 -8.966934 -9.561495 -7.9107018l35.925186 -29.014227c1.3078156 -1.0562325 5.588646 2.4855099 9.561493 7.9107037c3.972847 5.425194 6.1332855 10.679428 4.8254623 11.735661z" fill-rule="nonzero"></path><path fill="#8e8e8e" d="m40.558872 75.15608l0 0c-1.3078194 1.0562363 -5.588646 -2.4855042 -9.561495 -7.910698c-3.972849 -5.4251976 -6.1332836 -10.679428 -4.825466 -11.735661l0 0c1.3078194 -1.0562325 5.588646 2.485508 9.561495 7.9107018c3.9728508 5.425194 6.1332855 10.679428 4.825466 11.735657z" fill-rule="nonzero"></path><path fill="#000000" fill-opacity="0.0" d="m26.171911 55.509724l0 0c1.3078194 -1.0562325 5.588646 2.485508 9.561495 7.9107018c3.9728508 5.425194 6.1332855 10.679428 4.825466 11.735657l0 0c-1.3078194 1.0562363 -5.588646 -2.4855042 -9.561495 -7.910698c-3.972849 -5.4251976 -6.1332836 -10.679428 -4.825466 -11.735661l35.925186 -29.014227c1.3078156 -1.0562325 5.588646 2.4855099 9.561493 7.9107037c3.972847 5.425194 6.1332855 10.679428 4.8254623 11.735661l-35.925182 29.014221" fill-rule="nonzero"></path><path fill="#434343" d="m12.077474 57.55501l14.450677 -11.670788l23.738485 32.416496l-14.450676 11.670792z" fill-rule="nonzero"></path><path fill="#434343" d="m58.017982 60.8819l0 0c-7.8574142 -10.729828 -5.994858 -26.076672 4.160137 -34.27814c10.154995 -8.2014675 24.756931 -6.151827 32.614346 4.577999l0 0c-8.651413 -1.2236347 -17.389977 1.2197418 -24.288643 6.7913094c-6.898674 5.5715675 -11.390823 13.813702 -12.48584 22.908833z" fill-rule="nonzero"></path></g></svg>

