<?xml version="1.0" standalone="yes"?>

<svg version="1.1" viewBox="0.0 0.0 188.9763779527559 188.9763779527559" fill="none" stroke="none" stroke-linecap="square" stroke-miterlimit="10" xmlns="http://www.w3.org/2000/svg" xmlns:xlink="http://www.w3.org/1999/xlink"><clipPath id="p.0"><path d="m0 0l188.97638 0l0 188.97638l-188.97638 0l0 -188.97638z" clip-rule="nonzero"></path></clipPath><g clip-path="url(#p.0)"><path fill="#000000" fill-opacity="0.0" d="m0 0l188.97638 0l0 188.97638l-188.97638 0z" fill-rule="nonzero"></path><path fill="#fe2e2e" d="m4.335958 34.47829l0 0c0 -16.55148 13.4176235 -29.969105 29.969103 -29.969105l120.18778 0l0 0c7.948303 0 15.57106 3.1574502 21.191345 8.777748c5.6203003 5.6202965 8.777756 13.243055 8.777756 21.191357l0 119.87282c0 16.551483 -13.417633 29.9691 -29.9691 29.9691l-120.18778 0c-16.55148 0 -29.969103 -13.417618 -29.969103 -29.9691z" fill-rule="nonzero"></path><path stroke="#000000" stroke-width="8.0" stroke-linejoin="round" stroke-linecap="butt" d="m4.335958 34.47829l0 0c0 -16.55148 13.4176235 -29.969105 29.969103 -29.969105l120.18778 0l0 0c7.948303 0 15.57106 3.1574502 21.191345 8.777748c5.6203003 5.6202965 8.777756 13.243055 8.777756 21.191357l0 119.87282c0 16.551483 -13.417633 29.9691 -29.9691 29.9691l-120.18778 0c-16.55148 0 -29.969103 -13.417618 -29.969103 -29.9691z" fill-rule="nonzero"></path><path fill="#ffffff" d="m48.474964 91.68622l0 0c0 -6.9363174 5.0151787 -12.559326 11.201717 -12.559326l0 0c2.9708786 0 5.820076 1.3232117 7.920807 3.678543c2.100731 2.3553314 3.2809067 5.549843 3.2809067 8.880783l0 0c0 6.936325 -5.0151825 12.559326 -11.201714 12.559326l0 0c-6.1865387 0 -11.201717 -5.623001 -11.201717 -12.559326z" fill-rule="nonzero"></path><path fill="#ffffff" d="m52.499687 168.73236c-15.189224 -3.814743 -25.314325 -24.28601 -22.618422 -45.730675c2.6959019 -21.444672 17.192553 -35.74704 32.384003 -31.949997l-4.8714333 38.843178z" fill-rule="nonzero"></path><path fill="#ffffff" d="m67.82097 168.73236c15.189217 -3.814743 25.314323 -24.28601 22.618416 -45.730675c-2.6959 -21.444672 -17.19255 -35.74704 -32.384 -31.949997l4.8714333 38.843178z" fill-rule="nonzero"></path><path fill="#000000" fill-opacity="0.0" d="m51.75587 82.805435l-8.755905 -10.8346405" fill-rule="nonzero"></path><path stroke="#ffffff" stroke-width="4.0" stroke-linejoin="round" stroke-linecap="butt" d="m51.75587 82.805435l-8.755905 -10.8346405" fill-rule="nonzero"></path><path fill="#000000" fill-opacity="0.0" d="m76.790215 71.67195l-8.8364105 11.15226" fill-rule="nonzero"></path><path stroke="#ffffff" stroke-width="4.0" stroke-linejoin="round" stroke-linecap="butt" d="m76.790215 71.67195l-8.8364105 11.15226" fill-rule="nonzero"></path><path fill="#000000" fill-opacity="0.0" d="m26.130602 90.45352c0 7.504326 5.065317 11.256493 10.130636 15.008652c5.0653152 3.7521667 10.130634 7.5043335 10.130634 15.008659" fill-rule="nonzero"></path><path stroke="#ffffff" stroke-width="4.0" stroke-linejoin="round" stroke-linecap="butt" d="m26.130602 90.45352c0 7.504326 5.065317 11.256493 10.130636 15.008652c5.0653152 3.7521667 10.130634 7.5043335 10.130634 15.008659" fill-rule="nonzero"></path><path fill="#000000" fill-opacity="0.0" d="m74.66218 120.43686c0 -7.5043335 5.065323 -11.256493 10.130638 -15.008659c5.0653152 -3.7521667 10.130638 -7.504326 10.130638 -15.008652" fill-rule="nonzero"></path><path stroke="#ffffff" stroke-width="4.0" stroke-linejoin="round" stroke-linecap="butt" d="m74.66218 120.43686c0 -7.5043335 5.065323 -11.256493 10.130638 -15.008659c5.0653152 -3.7521667 10.130638 -7.504326 10.130638 -15.008652" fill-rule="nonzero"></path><path fill="#000000" fill-opacity="0.0" d="m74.66218 139.41768c0 7.504318 5.065323 11.256485 10.130638 15.008652c5.0653152 3.7521667 10.130638 7.5043335 10.130638 15.008652" fill-rule="nonzero"></path><path stroke="#ffffff" stroke-width="4.0" stroke-linejoin="round" stroke-linecap="butt" d="m74.66218 139.41768c0 7.504318 5.065323 11.256485 10.130638 15.008652c5.0653152 3.7521667 10.130638 7.5043335 10.130638 15.008652" fill-rule="nonzero"></path><path fill="#000000" fill-opacity="0.0" d="m46.333515 139.42262c0 7.504318 -5.065319 11.256485 -10.130634 15.008652c-5.065319 3.7521667 -10.130636 7.5043335 -10.130636 15.008652" fill-rule="nonzero"></path><path stroke="#ffffff" stroke-width="4.0" stroke-linejoin="round" stroke-linecap="butt" d="m46.333515 139.42262c0 7.504318 -5.065319 11.256485 -10.130634 15.008652c-5.065319 3.7521667 -10.130636 7.5043335 -10.130636 15.008652" fill-rule="nonzero"></path><path fill="#000000" fill-opacity="0.0" d="m42.90574 114.92902c0 7.504326 -5.065319 11.256493 -10.130638 15.008659c-5.0653152 3.7521667 -10.130632 7.504318 -10.130632 15.008652" fill-rule="nonzero"></path><path stroke="#ffffff" stroke-width="4.0" stroke-linejoin="round" stroke-linecap="butt" d="m42.90574 114.92902c0 7.504326 -5.065319 11.256493 -10.130638 15.008659c-5.0653152 3.7521667 -10.130632 7.504318 -10.130632 15.008652" fill-rule="nonzero"></path><path fill="#000000" fill-opacity="0.0" d="m76.77759 114.80194c0 7.504326 5.0653152 11.256485 10.1306305 15.008652c5.065323 3.7521667 10.130638 7.5043335 10.130638 15.008652" fill-rule="nonzero"></path><path stroke="#ffffff" stroke-width="4.0" stroke-linejoin="round" stroke-linecap="butt" d="m76.77759 114.80194c0 7.504326 5.0653152 11.256485 10.1306305 15.008652c5.065323 3.7521667 10.130638 7.5043335 10.130638 15.008652" fill-rule="nonzero"></path><path fill="#000000" fill-opacity="0.0" d="m134.86821 13.3629465l-0.3928833 102.591675" fill-rule="nonzero"></path><path stroke="#434343" stroke-width="8.0" stroke-linejoin="round" stroke-linecap="butt" d="m134.86821 13.3629465l-0.3928833 102.591675" fill-rule="nonzero"></path><path fill="#434343" d="m99.942924 168.09547l69.0648 0l-13.812958 -52.140854l-41.43888 0z" fill-rule="nonzero"></path><path fill="#000000" fill-opacity="0.0" d="m102.85871 137.97229l64.56515 -0.23942566" fill-rule="nonzero"></path><path stroke="#fe2e2e" stroke-width="8.0" stroke-linejoin="round" stroke-linecap="butt" d="m102.85871 137.97229l64.56515 -0.23942566" fill-rule="nonzero"></path></g></svg>

