<?xml version="1.0" standalone="yes"?>

<svg version="1.1" viewBox="0.0 0.0 40.0 50.0" fill="none" stroke="none" stroke-linecap="square" stroke-miterlimit="10" xmlns="http://www.w3.org/2000/svg" xmlns:xlink="http://www.w3.org/1999/xlink"><clipPath id="p.0"><path d="m0 0l40.0 0l0 50.0l-40.0 0l0 -50.0z" clip-rule="nonzero"></path></clipPath><g clip-path="url(#p.0)"><path fill="#000000" fill-opacity="0.0" d="m0 0l40.0 0l0 50.0l-40.0 0z" fill-rule="nonzero"></path><path fill="#ffff00" d="m1.136483 7.1497316l0 0c0 -3.4674315 2.8109088 -6.2783403 6.2783403 -6.2783403l25.112612 0l0 0c1.6651192 0 3.2620392 0.6614661 4.439457 1.8388834c1.1774178 1.1774173 1.8388824 2.774338 1.8388824 4.439457l0 26.372452c0 3.467434 -2.8109093 6.278343 -6.2783394 6.278343l-25.112612 0c-3.4674318 0 -6.2783403 -2.8109093 -6.2783403 -6.278343z" fill-rule="nonzero"></path><path stroke="#1c4587" stroke-width="2.0" stroke-linejoin="round" stroke-linecap="butt" d="m1.136483 7.1497316l0 0c0 -3.4674315 2.8109088 -6.2783403 6.2783403 -6.2783403l25.112612 0l0 0c1.6651192 0 3.2620392 0.6614661 4.439457 1.8388834c1.1774178 1.1774173 1.8388824 2.774338 1.8388824 4.439457l0 26.372452c0 3.467434 -2.8109093 6.278343 -6.2783394 6.278343l-25.112612 0c-3.4674318 0 -6.2783403 -2.8109093 -6.2783403 -6.278343z" fill-rule="nonzero"></path><path fill="#d9d9d9" d="m11.067989 19.533098l0 0c0 -1.446291 1.045721 -2.61874 2.3356829 -2.61874l0 0c0.619462 0 1.2135525 0.2759018 1.651578 0.76701164c0.43802547 0.49110794 0.6841059 1.157196 0.6841059 1.8517284l0 0c0 1.4462891 -1.045721 2.61874 -2.3356838 2.61874l0 0c-1.2899618 0 -2.3356829 -1.172451 -2.3356829 -2.61874z" fill-rule="nonzero"></path><path stroke="#d9d9d9" stroke-width="1.0" stroke-linejoin="round" stroke-linecap="butt" d="m11.067989 19.533098l0 0c0 -1.446291 1.045721 -2.61874 2.3356829 -2.61874l0 0c0.619462 0 1.2135525 0.2759018 1.651578 0.76701164c0.43802547 0.49110794 0.6841059 1.157196 0.6841059 1.8517284l0 0c0 1.4462891 -1.045721 2.61874 -2.3356838 2.61874l0 0c-1.2899618 0 -2.3356829 -1.172451 -2.3356829 -2.61874z" fill-rule="nonzero"></path><path fill="#d9d9d9" d="m11.907188 35.597958c-3.1671238 -0.79541016 -5.2783213 -5.0638657 -4.716195 -9.535286c0.56212664 -4.4714184 3.5848408 -7.4536 6.752428 -6.6618805l-1.015748 8.099176z" fill-rule="nonzero"></path><path stroke="#d9d9d9" stroke-width="1.0" stroke-linejoin="round" stroke-linecap="butt" d="m11.907188 35.597958c-3.1671238 -0.79541016 -5.2783213 -5.0638657 -4.716195 -9.535286c0.56212664 -4.4714184 3.5848408 -7.4536 6.752428 -6.6618805l-1.015748 8.099176z" fill-rule="nonzero"></path><path fill="#d9d9d9" d="m15.101848 35.597958c3.1671228 -0.79541016 5.2783213 -5.0638657 4.716195 -9.535286c-0.56212616 -4.4714184 -3.5848408 -7.4536 -6.752429 -6.6618805l1.015749 8.099176z" fill-rule="nonzero"></path><path stroke="#d9d9d9" stroke-width="1.0" stroke-linejoin="round" stroke-linecap="butt" d="m15.101848 35.597958c3.1671228 -0.79541016 5.2783213 -5.0638657 4.716195 -9.535286c-0.56212616 -4.4714184 -3.5848408 -7.4536 -6.752429 -6.6618805l1.015749 8.099176z" fill-rule="nonzero"></path><path fill="#000000" fill-opacity="0.0" d="m11.752095 17.68137l-1.8238811 -2.2601585" fill-rule="nonzero"></path><path stroke="#d9d9d9" stroke-width="1.0" stroke-linejoin="round" stroke-linecap="butt" d="m11.752095 17.68137l-1.8238811 -2.2601585" fill-rule="nonzero"></path><path fill="#000000" fill-opacity="0.0" d="m16.972036 15.35993l-1.8424911 2.3253536" fill-rule="nonzero"></path><path stroke="#d9d9d9" stroke-width="1.0" stroke-linejoin="round" stroke-linecap="butt" d="m16.972036 15.35993l-1.8424911 2.3253536" fill-rule="nonzero"></path><path fill="#000000" fill-opacity="0.0" d="m6.408938 19.276068c0 1.564724 1.0561757 2.3470879 2.112351 3.1294498c1.0561762 0.782362 2.1123514 1.564724 2.1123514 3.129448" fill-rule="nonzero"></path><path stroke="#d9d9d9" stroke-width="1.0" stroke-linejoin="round" stroke-linecap="butt" d="m6.408938 19.276068c0 1.564724 1.0561757 2.3470879 2.112351 3.1294498c1.0561762 0.782362 2.1123514 1.564724 2.1123514 3.129448" fill-rule="nonzero"></path><path fill="#000000" fill-opacity="0.0" d="m16.528318 25.527882c0 -1.564724 1.0561752 -2.347086 2.1123505 -3.1294498c1.0561752 -0.782362 2.1123505 -1.564724 2.1123505 -3.129448" fill-rule="nonzero"></path><path stroke="#d9d9d9" stroke-width="1.0" stroke-linejoin="round" stroke-linecap="butt" d="m16.528318 25.527882c0 -1.564724 1.0561752 -2.347086 2.1123505 -3.1294498c1.0561752 -0.782362 2.1123505 -1.564724 2.1123505 -3.129448" fill-rule="nonzero"></path><path fill="#000000" fill-opacity="0.0" d="m16.528318 29.485565c0 1.564724 1.0561752 2.347086 2.1123505 3.129448c1.0561752 0.7823639 2.1123505 1.564724 2.1123505 3.129448" fill-rule="nonzero"></path><path stroke="#d9d9d9" stroke-width="1.0" stroke-linejoin="round" stroke-linecap="butt" d="m16.528318 29.485565c0 1.564724 1.0561752 2.347086 2.1123505 3.129448c1.0561752 0.7823639 2.1123505 1.564724 2.1123505 3.129448" fill-rule="nonzero"></path><path fill="#000000" fill-opacity="0.0" d="m10.621472 29.486595c0 1.564724 -1.0561752 2.347086 -2.1123514 3.129448c-1.0561752 0.7823639 -2.112351 1.564724 -2.112351 3.1294518" fill-rule="nonzero"></path><path stroke="#d9d9d9" stroke-width="1.0" stroke-linejoin="round" stroke-linecap="butt" d="m10.621472 29.486595c0 1.564724 -1.0561752 2.347086 -2.1123514 3.129448c-1.0561752 0.7823639 -2.112351 1.564724 -2.112351 3.1294518" fill-rule="nonzero"></path><path fill="#000000" fill-opacity="0.0" d="m9.906742 24.379446c0 1.564724 -1.0561752 2.347086 -2.112351 3.129448c-1.0561757 0.782362 -2.1123514 1.5647259 -2.1123514 3.1294498" fill-rule="nonzero"></path><path stroke="#d9d9d9" stroke-width="1.0" stroke-linejoin="round" stroke-linecap="butt" d="m9.906742 24.379446c0 1.564724 -1.0561752 2.347086 -2.112351 3.129448c-1.0561757 0.782362 -2.1123514 1.5647259 -2.1123514 3.1294498" fill-rule="nonzero"></path><path fill="#000000" fill-opacity="0.0" d="m16.969404 24.352947c0 1.564724 1.0561752 2.347086 2.1123505 3.129448c1.0561752 0.782362 2.1123505 1.564724 2.1123505 3.1294498" fill-rule="nonzero"></path><path stroke="#d9d9d9" stroke-width="1.0" stroke-linejoin="round" stroke-linecap="butt" d="m16.969404 24.352947c0 1.564724 1.0561752 2.347086 2.1123505 3.129448c1.0561752 0.782362 2.1123505 1.564724 2.1123505 3.1294498" fill-rule="nonzero"></path><path fill="#000000" fill-opacity="0.0" d="m29.081652 3.2019062l-0.081920624 21.39126" fill-rule="nonzero"></path><path stroke="#1c4587" stroke-width="2.0" stroke-linejoin="round" stroke-linecap="butt" d="m29.081652 3.2019062l-0.081920624 21.39126" fill-rule="nonzero"></path><path fill="#1c4587" d="m21.799425 35.46499l14.40061 0l-2.8801231 -10.871822l-8.640366 0z" fill-rule="nonzero"></path><path fill="#000000" fill-opacity="0.0" d="m22.407393 29.184042l13.462393 -0.049921036" fill-rule="nonzero"></path><path stroke="#ffff00" stroke-width="1.0" stroke-linejoin="round" stroke-linecap="butt" d="m22.407393 29.184042l13.462393 -0.049921036" fill-rule="nonzero"></path><path fill="#1c4587" d="m19.982952 49.999897l-8.094488 -8.125984l16.220472 0.031497955z" fill-rule="nonzero"></path></g></svg>

