<?xml version="1.0" standalone="yes"?>

<svg version="1.1" viewBox="0.0 0.0 377.9527559055118 377.9527559055118" fill="none" stroke="none" stroke-linecap="square" stroke-miterlimit="10" xmlns="http://www.w3.org/2000/svg" xmlns:xlink="http://www.w3.org/1999/xlink"><clipPath id="p.0"><path d="m0 0l377.95276 0l0 377.95276l-377.95276 0l0 -377.95276z" clip-rule="nonzero"></path></clipPath><g clip-path="url(#p.0)"><path fill="#000000" fill-opacity="0.0" d="m0 0l377.95276 0l0 377.95276l-377.95276 0z" fill-rule="nonzero"></path><path fill="#000000" d="m126.331505 51.646755l0 0c0 -3.65588 2.9636765 -6.6195564 6.6195602 -6.6195564l112.05223 0c1.7556152 0 3.4393158 0.6974182 4.680725 1.9388237c1.2414093 1.2414093 1.9388275 2.9251175 1.9388275 4.6807327l0 26.477428c0 3.6558762 -2.963684 6.6195526 -6.6195526 6.6195526l-112.05223 0c-3.6558838 0 -6.6195602 -2.9636765 -6.6195602 -6.6195526z" fill-rule="nonzero"></path><path fill="#783f04" d="m31.03937 218.09024l0 0c0 -87.2262 70.71081 -157.93701 157.93701 -157.93701l0 0c41.887497 0 82.05939 16.639744 111.678314 46.25868c29.618958 29.618942 46.258698 69.79083 46.258698 111.67833l0 0c0 87.2262 -70.710815 157.93701 -157.93701 157.93701l0 0c-87.226204 0 -157.93701 -70.710815 -157.93701 -157.93701z" fill-rule="nonzero"></path><path fill="#b45f06" d="m39.086613 218.0893l0 0c0 -82.78183 67.10794 -149.88977 149.88977 -149.88977l0 0c39.753235 0 77.878296 15.791916 105.98807 43.901695c28.109772 28.10978 43.901703 66.23484 43.901703 105.988075l0 0c0 82.78183 -67.10794 149.88977 -149.88977 149.88977l0 0c-82.78183 0 -149.88977 -67.10794 -149.88977 -149.88977z" fill-rule="nonzero"></path><path fill="#45818e" d="m126.33071 -120.445244l125.29133 0l0 132.37796l-62.64566 33.094486l-62.645668 -33.094486z" fill-rule="nonzero"></path><path fill="#ffd966" d="m286.82025 73.127144l31.917725 -6.7453537l6.8539124 -31.412125l6.853943 31.412125l31.917725 6.7453537l-31.917725 6.7453537l-6.853943 31.412125l-6.8539124 -31.412125z" fill-rule="nonzero"></path><path fill="#783f04" d="m150.20473 123.514435l0 0c0 -21.412994 17.358658 -38.771652 38.771652 -38.771652l0 0c10.282883 0 20.144608 4.0848618 27.415695 11.355957c7.271103 7.2710953 11.355957 17.132812 11.355957 27.415695l0 0c0 21.412994 -17.358658 38.771652 -38.771652 38.771652l0 0c-21.412994 0 -38.771652 -17.358658 -38.771652 -38.771652z" fill-rule="nonzero"></path><path fill="#ffffff" d="m183.1811 123.514435l0 0c0 -3.2006378 2.594635 -5.795273 5.795273 -5.795273l0 0c1.5370026 0 3.0110474 0.6105728 4.09787 1.6973953c1.0868378 1.0868225 1.697403 2.560875 1.697403 4.0978775l0 0c0 3.2006454 -2.594635 5.795273 -5.795273 5.795273l0 0c-3.2006378 0 -5.795273 -2.5946274 -5.795273 -5.795273z" fill-rule="nonzero"></path><path fill="#000000" fill-opacity="0.0" d="m188.97638 86.88976l0 38.645668" fill-rule="nonzero"></path><path stroke="#ffffff" stroke-width="3.0" stroke-linejoin="round" stroke-linecap="butt" d="m188.97638 86.88976l0 38.645668" fill-rule="nonzero"></path><path fill="#000000" fill-opacity="0.0" d="m184.8785 127.61231l-10.771652 12.787407" fill-rule="nonzero"></path><path stroke="#ffffff" stroke-width="3.0" stroke-linejoin="round" stroke-linecap="butt" d="m184.8785 127.61231l-10.771652 12.787407" fill-rule="nonzero"></path><path fill="#ffffff" d="m80.01365 197.43498c0.12820435 -18.968582 15.505646 -34.29709 34.47454 -34.364838c18.968887 -0.06774902 34.455444 15.150513 34.719147 34.117706z" fill-rule="nonzero"></path><path fill="#ffffff" d="m80.01619 196.50201l0 0c0 -0.36239624 0.29377747 -0.6561737 0.65618134 -0.6561737l78.656136 0c0.17402649 0 0.34092712 0.06913757 0.46398926 0.19218445c0.123062134 0.123062134 0.1921997 0.28996277 0.1921997 0.46398926l0 2.624649c0 0.36239624 -0.29379272 0.65618896 -0.65618896 0.65618896l-78.656136 0l0 0c-0.36240387 0 -0.65618134 -0.29379272 -0.65618134 -0.65618896z" fill-rule="nonzero"></path><path fill="#ffffff" d="m149.21516 203.67665c-0.12820435 18.968582 -15.505646 34.29709 -34.47455 34.364838c-18.968895 0.06776428 -34.455437 -15.150513 -34.719147 -34.11769z" fill-rule="nonzero"></path><path fill="#ffffff" d="m83.554436 316.19464l11.181107 -75.46457l33.543297 0l-11.181091 75.46457z" fill-rule="nonzero"></path><path fill="#ffffff" d="m143.80212 269.01428l0 0c0 -0.8552551 0.69332886 -1.548584 1.548584 -1.548584l37.658737 0c0.41070557 0 0.80459595 0.16314697 1.0950165 0.45358276c0.29042053 0.29040527 0.4535675 0.68429565 0.4535675 1.0950012l0 6.1941833c0 0.8552551 -0.69332886 1.548584 -1.548584 1.548584l-37.658737 0c-0.8552551 0 -1.548584 -0.69332886 -1.548584 -1.548584z" fill-rule="nonzero"></path><path fill="#ffffff" d="m122.68185 241.77454l0 0c0.6349182 -0.5769348 1.6171188 -0.5297394 2.1938019 0.105407715l24.93528 27.463684c0.27693176 0.3050232 0.42140198 0.70758057 0.40161133 1.1191711c-0.01977539 0.41159058 -0.20217896 0.7984619 -0.5070648 1.075531l-4.5983887 4.1784363c-0.6349182 0.5769348 -1.6171265 0.5297241 -2.1938019 -0.10543823l-24.935272 -27.463654c-0.57668304 -0.63516235 -0.5294647 -1.6177673 0.10545349 -2.1947021z" fill-rule="nonzero"></path><path fill="#ffffff" d="m292.09183 316.19464l-11.181091 -75.46457l-33.543304 0l11.181091 75.46457z" fill-rule="nonzero"></path><path fill="#ffffff" d="m231.84415 269.01428l0 0c0 -0.8552551 -0.69332886 -1.548584 -1.548584 -1.548584l-37.658737 0c-0.41070557 0 -0.80459595 0.16314697 -1.0950165 0.45358276c-0.29040527 0.29040527 -0.4535675 0.68429565 -0.4535675 1.0950012l0 6.1941833c0 0.8552551 0.69332886 1.548584 1.548584 1.548584l37.658737 0c0.8552551 0 1.548584 -0.69332886 1.548584 -1.548584z" fill-rule="nonzero"></path><path fill="#b45f06" d="m219.69768 218.5449l-63.10936 0l12.621872 -20.30252l37.865616 0z" fill-rule="nonzero"></path><path stroke="#ffffff" stroke-width="3.0" stroke-linejoin="round" stroke-linecap="butt" d="m219.69768 218.5449l-63.10936 0l12.621872 -20.30252l37.865616 0z" fill-rule="nonzero"></path><path fill="#b45f06" d="m156.67255 217.6415l63.118103 0l0 45.259842l-63.118103 0z" fill-rule="nonzero"></path><path stroke="#ffffff" stroke-width="3.0" stroke-linejoin="round" stroke-linecap="butt" d="m156.67255 217.6415l63.118103 0l0 45.259842l-63.118103 0z" fill-rule="nonzero"></path><path fill="#000000" fill-opacity="0.0" d="m188.14299 198.24239l0.09449768 19.401566" fill-rule="nonzero"></path><path stroke="#ffffff" stroke-width="3.0" stroke-linejoin="round" stroke-linecap="butt" d="m188.14299 198.24239l0.09449768 19.401566" fill-rule="nonzero"></path><path fill="#ffffff" d="m252.96443 241.77454l0 0c-0.6349335 -0.5769348 -1.6171265 -0.5297394 -2.1938171 0.105407715l-24.935272 27.463684c-0.27693176 0.3050232 -0.42140198 0.70758057 -0.40161133 1.1191711c0.01977539 0.41159058 0.20217896 0.7984619 0.5070801 1.075531l4.5983734 4.1784363c0.6349182 0.5769348 1.6171265 0.5297241 2.1938019 -0.10543823l24.935287 -27.463654c0.57666016 -0.63516235 0.52944946 -1.6177673 -0.10546875 -2.1947021z" fill-rule="nonzero"></path><path fill="#ffffff" d="m229.41719 203.4437l0 0c0 -17.864456 14.481995 -32.34645 32.34645 -32.34645l0 0c8.578827 0 16.806274 3.4079132 22.872406 9.47406c6.0661316 6.0661316 9.47406 14.293579 9.47406 22.87239l0 0c0 17.864456 -14.482025 32.346466 -32.346466 32.346466l0 0c-17.864456 0 -32.34645 -14.48201 -32.34645 -32.346466z" fill-rule="nonzero"></path><path fill="#000000" fill-opacity="0.0" d="m330.35434 210.65694l0 0c2.5411072 34.705246 -8.067169 67.00719 -29.25592 89.0836l-82.26605 -96.10797z" fill-rule="nonzero"></path><path fill="#000000" fill-opacity="0.0" d="m330.35434 210.65694l0 0c2.5411072 34.705246 -8.067169 67.00719 -29.25592 89.0836" fill-rule="nonzero"></path><path stroke="#ffffff" stroke-width="4.0" stroke-linejoin="round" stroke-linecap="butt" d="m330.35434 210.65694l0 0c2.5411072 34.705246 -8.067169 67.00719 -29.25592 89.0836" fill-rule="nonzero"></path></g></svg>

