<?xml version="1.0" standalone="yes"?>

<svg version="1.1" viewBox="0.0 0.0 377.9527559055118 377.9527559055118" fill="none" stroke="none" stroke-linecap="square" stroke-miterlimit="10" xmlns="http://www.w3.org/2000/svg" xmlns:xlink="http://www.w3.org/1999/xlink"><clipPath id="p.0"><path d="m0 0l377.95276 0l0 377.95276l-377.95276 0l0 -377.95276z" clip-rule="nonzero"></path></clipPath><g clip-path="url(#p.0)"><path fill="#000000" fill-opacity="0.0" d="m0 0l377.95276 0l0 377.95276l-377.95276 0z" fill-rule="nonzero"></path><path fill="#000000" d="m126.331505 51.646755l0 0c0 -3.65588 2.9636765 -6.6195564 6.6195602 -6.6195564l112.05223 0c1.7556152 0 3.4393158 0.6974182 4.680725 1.9388237c1.2414093 1.2414093 1.9388275 2.9251175 1.9388275 4.6807327l0 26.477428c0 3.6558762 -2.963684 6.6195526 -6.6195526 6.6195526l-112.05223 0c-3.6558838 0 -6.6195602 -2.9636765 -6.6195602 -6.6195526z" fill-rule="nonzero"></path><path fill="#999999" d="m31.03937 218.09024l0 0c0 -87.2262 70.71081 -157.93701 157.93701 -157.93701l0 0c41.887497 0 82.05939 16.639744 111.678314 46.25868c29.618958 29.618942 46.258698 69.79083 46.258698 111.67833l0 0c0 87.2262 -70.710815 157.93701 -157.93701 157.93701l0 0c-87.226204 0 -157.93701 -70.710815 -157.93701 -157.93701z" fill-rule="nonzero"></path><path fill="#d9d9d9" d="m39.086613 218.0893l0 0c0 -82.78183 67.10794 -149.88977 149.88977 -149.88977l0 0c39.753235 0 77.878296 15.791916 105.98807 43.901695c28.109772 28.10978 43.901703 66.23484 43.901703 105.988075l0 0c0 82.78183 -67.10794 149.88977 -149.88977 149.88977l0 0c-82.78183 0 -149.88977 -67.10794 -149.88977 -149.88977z" fill-rule="nonzero"></path><path fill="#45818e" d="m126.33071 -120.445244l125.29133 0l0 132.37796l-62.64566 33.094486l-62.645668 -33.094486z" fill-rule="nonzero"></path><path fill="#ffd966" d="m286.82025 73.127144l31.917725 -6.7453537l6.8539124 -31.412125l6.853943 31.412125l31.917725 6.7453537l-31.917725 6.7453537l-6.853943 31.412125l-6.8539124 -31.412125z" fill-rule="nonzero"></path><path fill="#434343" d="m102.72251 220.46788l0 0c0 -14.985611 13.09095 -27.133865 29.239449 -27.133865l0 0c16.148499 0 29.23944 12.148254 29.23944 27.133865l0 0c0 14.985611 -13.090942 27.13385 -29.23944 27.13385l0 0c-16.148499 0 -29.239449 -12.148239 -29.239449 -27.13385z" fill-rule="nonzero"></path><path fill="#434343" d="m104.308754 263.80573l0 0c0 -5.091217 4.127243 -9.218445 9.21846 -9.218445l36.872734 0l0 0c2.4448853 0 4.7896423 0.9712219 6.5184326 2.7000122c1.7288055 1.7287903 2.7000275 4.0735474 2.7000275 6.5184326l0 71.99481c0 5.091217 -4.127243 9.218445 -9.21846 9.218445l-36.872734 0c-5.091217 0 -9.21846 -4.127228 -9.21846 -9.218445z" fill-rule="nonzero"></path><path fill="#434343" d="m84.765236 198.99905l0 0c1.0030518 -0.39562988 2.1353455 0.09741211 2.5290298 1.1012268l27.792068 70.863556c0.18904877 0.48205566 0.17901611 1.0198364 -0.027900696 1.4950562c-0.20692444 0.4751892 -0.5937729 0.8489075 -1.0754623 1.0388794l-7.2645645 2.8652954c-1.0030594 0.39562988 -2.1353455 -0.09738159 -2.5290375 -1.1012268l-27.79206 -70.863556c-0.39369202 -1.0038147 0.10030365 -2.1382904 1.103363 -2.5339203z" fill-rule="nonzero"></path><path fill="#434343" d="m179.8933 198.99904l0 0c-1.003067 -0.39562988 -2.1351318 0.09750366 -2.5285492 1.1014252l-27.923279 71.25391c-0.18893433 0.4821167 -0.17877197 1.019928 0.028244019 1.4951782c0.20700073 0.47525024 0.59391785 0.8489685 1.075592 1.0389404l7.264572 2.8652954c1.0030518 0.39562988 2.1351318 -0.097473145 2.5285492 -1.1014099l27.923279 -71.25391c0.39341736 -1.0039215 -0.10079956 -2.1384888 -1.1038513 -2.5341187z" fill-rule="nonzero"></path><path fill="#ffffff" d="m216.01501 220.03915l0 0c0 -14.985611 13.090942 -27.133865 29.239456 -27.133865l0 0c16.148483 0 29.239426 12.148254 29.239426 27.133865l0 0c0 14.985611 -13.090942 27.13385 -29.239426 27.13385l0 0c-16.148514 0 -29.239456 -12.148239 -29.239456 -27.13385z" fill-rule="nonzero"></path><path fill="#ffffff" d="m217.60126 263.377l0 0c0 -5.091217 4.127243 -9.218475 9.21846 -9.218475l36.872726 0l0 0c2.4448853 0 4.7896423 0.9712372 6.5184326 2.7000427c1.7288208 1.7287903 2.7000427 4.0735474 2.7000427 6.5184326l0 71.99478c0 5.091217 -4.1272583 9.218475 -9.218475 9.218475l-36.872726 0c-5.091217 0 -9.21846 -4.1272583 -9.21846 -9.218475z" fill-rule="nonzero"></path><path fill="#ffffff" d="m198.05774 198.57033l0 0c1.0030518 -0.39562988 2.1353455 0.09741211 2.5290375 1.1012268l27.792053 70.86357c0.1890564 0.48205566 0.17903137 1.0198364 -0.027893066 1.4950256c-0.20692444 0.47521973 -0.5937805 0.8489075 -1.0754547 1.0389099l-7.264572 2.8652954c-1.0030518 0.39562988 -2.1353455 -0.09741211 -2.5290375 -1.1012268l-27.792053 -70.86357c-0.39369202 -1.0038147 0.10029602 -2.1383057 1.1033478 -2.5339203z" fill-rule="nonzero"></path><path fill="#ffffff" d="m293.1858 198.57031l0 0c-1.0030518 -0.39562988 -2.1351318 0.0974884 -2.528534 1.1014252l-27.923279 71.25392c-0.18893433 0.48208618 -0.17877197 1.019928 0.02822876 1.4951477c0.20700073 0.47525024 0.5939331 0.8489685 1.075592 1.038971l7.2645874 2.8652954c1.0030518 0.39562988 2.1351318 -0.09750366 2.528534 -1.1014099l27.923279 -71.25392c0.39343262 -1.0039368 -0.10076904 -2.1384888 -1.1038513 -2.5341187z" fill-rule="nonzero"></path><path fill="#434343" d="m156.47955 190.32716l0 -8.502213l0 0c0 -4.695633 14.549469 -8.502197 32.497147 -8.502197c17.947678 0 32.497147 3.8065643 32.497147 8.502197l0 8.502213z" fill-rule="nonzero"></path><path fill="#434343" d="m182.48787 129.64633l12.977661 0l0 44.073715l-12.977661 0z" fill-rule="nonzero"></path><path fill="#434343" d="m229.41936 78.21374l0 33.21421l0 0c0 18.343704 -18.106796 33.21422 -40.442657 33.21422c-22.335861 0 -40.442657 -14.870514 -40.442657 -33.21422l0 -33.21421z" fill-rule="nonzero"></path><path fill="#ffd966" d="m161.32637 102.19514l21.123077 1.449585E-4l6.527252 -20.09243l6.527252 20.09243l21.123062 -1.449585E-4l-17.089005 12.417664l6.527527 20.092339l-17.088837 -12.417892l-17.088837 12.417892l6.5275116 -20.092339z" fill-rule="nonzero"></path><path fill="#000000" fill-opacity="0.0" d="m330.35434 210.65694l0 0c2.5411072 34.705246 -8.067169 67.00719 -29.25592 89.0836l-82.26605 -96.10797z" fill-rule="nonzero"></path><path fill="#000000" fill-opacity="0.0" d="m330.35434 210.65694l0 0c2.5411072 34.705246 -8.067169 67.00719 -29.25592 89.0836" fill-rule="nonzero"></path><path stroke="#ffffff" stroke-width="4.0" stroke-linejoin="round" stroke-linecap="butt" d="m330.35434 210.65694l0 0c2.5411072 34.705246 -8.067169 67.00719 -29.25592 89.0836" fill-rule="nonzero"></path></g></svg>

