<?xml version="1.0" standalone="yes"?>

<svg version="1.1" viewBox="0.0 0.0 377.9527559055118 377.9527559055118" fill="none" stroke="none" stroke-linecap="square" stroke-miterlimit="10" xmlns="http://www.w3.org/2000/svg" xmlns:xlink="http://www.w3.org/1999/xlink"><clipPath id="p.0"><path d="m0 0l377.95276 0l0 377.95276l-377.95276 0l0 -377.95276z" clip-rule="nonzero"></path></clipPath><g clip-path="url(#p.0)"><path fill="#000000" fill-opacity="0.0" d="m0 0l377.95276 0l0 377.95276l-377.95276 0z" fill-rule="nonzero"></path><path fill="#000000" d="m126.331505 51.646755l0 0c0 -3.65588 2.9636765 -6.6195564 6.6195602 -6.6195564l112.05223 0c1.7556152 0 3.4393158 0.6974182 4.680725 1.9388237c1.2414093 1.2414093 1.9388275 2.9251175 1.9388275 4.6807327l0 26.477428c0 3.6558762 -2.963684 6.6195526 -6.6195526 6.6195526l-112.05223 0c-3.6558838 0 -6.6195602 -2.9636765 -6.6195602 -6.6195526z" fill-rule="nonzero"></path><path fill="#e69138" d="m31.03937 218.09024l0 0c0 -87.2262 70.71081 -157.93701 157.93701 -157.93701l0 0c41.887497 0 82.05939 16.639744 111.678314 46.25868c29.618958 29.618942 46.258698 69.79083 46.258698 111.67833l0 0c0 87.2262 -70.710815 157.93701 -157.93701 157.93701l0 0c-87.226204 0 -157.93701 -70.710815 -157.93701 -157.93701z" fill-rule="nonzero"></path><path fill="#ffd966" d="m39.086613 218.0893l0 0c0 -82.78183 67.10794 -149.88977 149.88977 -149.88977l0 0c39.753235 0 77.878296 15.791916 105.98807 43.901695c28.109772 28.10978 43.901703 66.23484 43.901703 105.988075l0 0c0 82.78183 -67.10794 149.88977 -149.88977 149.88977l0 0c-82.78183 0 -149.88977 -67.10794 -149.88977 -149.88977z" fill-rule="nonzero"></path><path fill="#000000" d="m243.06813 88.99262l0 0c0.45384216 -1.0024185 1.6349335 -1.4483948 2.6380615 -0.99611664l7.2650146 3.2755585l0 0c0.48171997 0.21718597 0.85713196 0.61670685 1.0436401 1.1106644c0.18652344 0.49396515 0.16886902 1.0419006 -0.049072266 1.5232773l-67.45888 148.99986c-0.4538269 1.0024109 -1.6349335 1.4483948 -2.6380463 0.996109l-7.2650146 -3.2755585c-1.003128 -0.4522705 -1.44841 -1.6315308 -0.9945679 -2.6339417z" fill-rule="nonzero"></path><path fill="#000000" d="m196.74681 256.53067l0 0c0.98350525 0.4449768 1.418869 1.602417 0.9723816 2.5852356l-3.2335663 7.118042l0 0c-0.21440125 0.47198486 -0.6076355 0.8397217 -1.093216 1.0223694c-0.4855652 0.1826477 -1.0236969 0.16519165 -1.4960022 -0.048461914l-38.139175 -17.254807c-0.98350525 -0.44496155 -1.418869 -1.602417 -0.9723816 -2.5852356l3.2335663 -7.118042c0.44647217 -0.9828186 1.6056976 -1.4188538 2.5892181 -0.9738922z" fill-rule="nonzero"></path><path fill="#000000" d="m173.95679 365.40964l-82.158005 -37.19095l53.860886 -75.24631l49.2948 22.314575z" fill-rule="nonzero"></path><path fill="#ffd966" d="m139.13824 360.31604l30.409454 -55.653564l-21.748032 59.55905z" fill-rule="nonzero"></path><path fill="#45818e" d="m126.33071 -120.445244l125.29133 0l0 132.37796l-62.64566 33.094486l-62.645668 -33.094486z" fill-rule="nonzero"></path><path fill="#ffd966" d="m286.82025 73.127144l31.917725 -6.7453537l6.8539124 -31.412125l6.853943 31.412125l31.917725 6.7453537l-31.917725 6.7453537l-6.853943 31.412125l-6.8539124 -31.412125z" fill-rule="nonzero"></path><path fill="#000000" fill-opacity="0.0" d="m330.35434 210.65694l0 0c2.5411072 34.705246 -8.067169 67.00719 -29.25592 89.0836l-82.26605 -96.10797z" fill-rule="nonzero"></path><path fill="#000000" fill-opacity="0.0" d="m330.35434 210.65694l0 0c2.5411072 34.705246 -8.067169 67.00719 -29.25592 89.0836" fill-rule="nonzero"></path><path stroke="#ffffff" stroke-width="4.0" stroke-linejoin="round" stroke-linecap="butt" d="m330.35434 210.65694l0 0c2.5411072 34.705246 -8.067169 67.00719 -29.25592 89.0836" fill-rule="nonzero"></path></g></svg>

