<?xml version="1.0" standalone="yes"?>

<svg version="1.1" viewBox="0.0 0.0 377.9527559055118 377.9527559055118" fill="none" stroke="none" stroke-linecap="square" stroke-miterlimit="10" xmlns="http://www.w3.org/2000/svg" xmlns:xlink="http://www.w3.org/1999/xlink"><clipPath id="p.0"><path d="m0 0l377.95276 0l0 377.95276l-377.95276 0l0 -377.95276z" clip-rule="nonzero"></path></clipPath><g clip-path="url(#p.0)"><path fill="#000000" fill-opacity="0.0" d="m0 0l377.95276 0l0 377.95276l-377.95276 0z" fill-rule="nonzero"></path><path fill="#000000" d="m126.331505 51.646755l0 0c0 -3.65588 2.9636765 -6.6195564 6.6195602 -6.6195564l112.05223 0c1.7556152 0 3.4393158 0.6974182 4.680725 1.9388237c1.2414093 1.2414093 1.9388275 2.9251175 1.9388275 4.6807327l0 26.477428c0 3.6558762 -2.963684 6.6195526 -6.6195526 6.6195526l-112.05223 0c-3.6558838 0 -6.6195602 -2.9636765 -6.6195602 -6.6195526z" fill-rule="nonzero"></path><path fill="#783f04" d="m31.03937 218.09024l0 0c0 -87.2262 70.71081 -157.93701 157.93701 -157.93701l0 0c41.887497 0 82.05939 16.639744 111.678314 46.25868c29.618958 29.618942 46.258698 69.79083 46.258698 111.67833l0 0c0 87.2262 -70.710815 157.93701 -157.93701 157.93701l0 0c-87.226204 0 -157.93701 -70.710815 -157.93701 -157.93701z" fill-rule="nonzero"></path><path fill="#b45f06" d="m39.086613 218.0893l0 0c0 -82.78183 67.10794 -149.88977 149.88977 -149.88977l0 0c39.753235 0 77.878296 15.791916 105.98807 43.901695c28.109772 28.10978 43.901703 66.23484 43.901703 105.988075l0 0c0 82.78183 -67.10794 149.88977 -149.88977 149.88977l0 0c-82.78183 0 -149.88977 -67.10794 -149.88977 -149.88977z" fill-rule="nonzero"></path><path fill="#45818e" d="m126.33071 -120.445244l125.29133 0l0 132.37796l-62.64566 33.094486l-62.645668 -33.094486z" fill-rule="nonzero"></path><path fill="#ffd966" d="m286.82025 73.127144l31.917725 -6.7453537l6.8539124 -31.412125l6.853943 31.412125l31.917725 6.7453537l-31.917725 6.7453537l-6.853943 31.412125l-6.8539124 -31.412125z" fill-rule="nonzero"></path><path fill="#000000" fill-opacity="0.0" d="m330.35434 210.65694l0 0c2.5411072 34.705246 -8.067169 67.00719 -29.25592 89.0836l-82.26605 -96.10797z" fill-rule="nonzero"></path><path fill="#000000" fill-opacity="0.0" d="m330.35434 210.65694l0 0c2.5411072 34.705246 -8.067169 67.00719 -29.25592 89.0836" fill-rule="nonzero"></path><path stroke="#ffffff" stroke-width="4.0" stroke-linejoin="round" stroke-linecap="butt" d="m330.35434 210.65694l0 0c2.5411072 34.705246 -8.067169 67.00719 -29.25592 89.0836" fill-rule="nonzero"></path><path fill="#434343" d="m146.04762 217.0898l82.26689 0l20.567337 20.567337l0 113.00745l0 0l-123.40157 0l0 0l0 -113.00745z" fill-rule="nonzero"></path><path fill="#ffffff" d="m222.43898 217.16074l-35.291336 109.5748l-35.291336 -109.5748z" fill-rule="nonzero"></path><path fill="#999999" d="m203.6855 276.54562l-33.097336 0l16.548676 -50.681015z" fill-rule="nonzero"></path><path fill="#ffffff" d="m116.018394 153.56157l0 0c0 -37.58146 32.348305 -68.04725 72.251976 -68.04725l0 0c19.162415 0 37.539978 7.169243 51.08986 19.930573c13.549866 12.761337 21.16211 30.06942 21.16211 48.116676l0 0c0 37.58145 -32.348312 68.04724 -72.25197 68.04724l0 0c-39.90367 0 -72.251976 -30.46579 -72.251976 -68.04724z" fill-rule="nonzero"></path><path stroke="#ffffff" stroke-width="1.0" stroke-linejoin="round" stroke-linecap="butt" d="m116.018394 153.56157l0 0c0 -37.58146 32.348305 -68.04725 72.251976 -68.04725l0 0c19.162415 0 37.539978 7.169243 51.08986 19.930573c13.549866 12.761337 21.16211 30.06942 21.16211 48.116676l0 0c0 37.58145 -32.348312 68.04724 -72.25197 68.04724l0 0c-39.90367 0 -72.251976 -30.46579 -72.251976 -68.04724z" fill-rule="nonzero"></path><path fill="#999999" d="m172.34831 217.15823l29.578262 0l-14.789139 29.103027z" fill-rule="nonzero"></path><path fill="#999999" d="m170.58878 276.05527l33.097336 0l-16.548676 50.68103z" fill-rule="nonzero"></path><path fill="#000000" fill-opacity="0.0" d="m203.68716 121.49318c-22.574783 23.232483 -53.41455 46.760468 -86.50254 46.760468" fill-rule="evenodd"></path><path stroke="#434343" stroke-width="8.0" stroke-linejoin="round" stroke-linecap="butt" d="m203.68716 121.49318c-22.574783 23.232483 -53.41455 46.760468 -86.50254 46.760468" fill-rule="evenodd"></path><path fill="#000000" fill-opacity="0.0" d="m198.23402 121.03983c14.2677 20.578407 40.661438 33.924522 63.70146 32.869408" fill-rule="evenodd"></path><path stroke="#434343" stroke-width="8.0" stroke-linejoin="round" stroke-linecap="butt" d="m198.23402 121.03983c14.2677 20.578407 40.661438 33.924522 63.70146 32.869408" fill-rule="evenodd"></path></g></svg>

