<?xml version="1.0" standalone="yes"?>

<svg version="1.1" viewBox="0.0 0.0 377.9527559055118 377.9527559055118" fill="none" stroke="none" stroke-linecap="square" stroke-miterlimit="10" xmlns="http://www.w3.org/2000/svg" xmlns:xlink="http://www.w3.org/1999/xlink"><clipPath id="p.0"><path d="m0 0l377.95276 0l0 377.95276l-377.95276 0l0 -377.95276z" clip-rule="nonzero"></path></clipPath><g clip-path="url(#p.0)"><path fill="#000000" fill-opacity="0.0" d="m0 0l377.95276 0l0 377.95276l-377.95276 0z" fill-rule="nonzero"></path><path fill="#000000" d="m126.331505 51.646755l0 0c0 -3.65588 2.9636765 -6.6195564 6.6195602 -6.6195564l112.05223 0c1.7556152 0 3.4393158 0.6974182 4.680725 1.9388237c1.2414093 1.2414093 1.9388275 2.9251175 1.9388275 4.6807327l0 26.477428c0 3.6558762 -2.963684 6.6195526 -6.6195526 6.6195526l-112.05223 0c-3.6558838 0 -6.6195602 -2.9636765 -6.6195602 -6.6195526z" fill-rule="nonzero"></path><path fill="#e69138" d="m31.03937 218.09024l0 0c0 -87.2262 70.71081 -157.93701 157.93701 -157.93701l0 0c41.887497 0 82.05939 16.639744 111.678314 46.25868c29.618958 29.618942 46.258698 69.79083 46.258698 111.67833l0 0c0 87.2262 -70.710815 157.93701 -157.93701 157.93701l0 0c-87.226204 0 -157.93701 -70.710815 -157.93701 -157.93701z" fill-rule="nonzero"></path><path fill="#ffd966" d="m39.086613 218.0893l0 0c0 -82.78183 67.10794 -149.88977 149.88977 -149.88977l0 0c39.753235 0 77.878296 15.791916 105.98807 43.901695c28.109772 28.10978 43.901703 66.23484 43.901703 105.988075l0 0c0 82.78183 -67.10794 149.88977 -149.88977 149.88977l0 0c-82.78183 0 -149.88977 -67.10794 -149.88977 -149.88977z" fill-rule="nonzero"></path><path fill="#ffffff" d="m251.3935 93.42296l0 0c0 -0.8726578 0.707428 -1.5800858 1.5800934 -1.5800858l6.3201447 0l0 0c0.41906738 0 0.82095337 0.16647339 1.117279 0.46279144c0.29632568 0.29632568 0.46279907 0.6982269 0.46279907 1.1172943l0 132.99731c0 0.87265015 -0.707428 1.5800781 -1.5800781 1.5800781l-6.3201447 0c-0.8726654 0 -1.5800934 -0.707428 -1.5800934 -1.5800781z" fill-rule="nonzero"></path><path fill="#ffffff" d="m272.80362 233.03831l0 0c0.87265015 0 1.5800781 0.707428 1.5800781 1.5800781l0 6.3201447l0 0c0 0.41906738 -0.16647339 0.8209686 -0.46279907 1.1172943c-0.29632568 0.29632568 -0.69821167 0.46279907 -1.117279 0.46279907l-33.343765 0c-0.8726654 0 -1.5800934 -0.707428 -1.5800934 -1.5800934l0 -6.3201447c0 -0.87265015 0.707428 -1.5800781 1.5800934 -1.5800781z" fill-rule="nonzero"></path><path fill="#ffffff" d="m292.06415 321.29486l-71.87474 0l14.374939 -73.7677l43.124863 0z" fill-rule="nonzero"></path><path fill="#ffd966" d="m265.11075 330.7443l3.779541 -52.944885l3.7795105 52.944885z" fill-rule="nonzero"></path><path fill="#ffffff" d="m109.0744 310.29672l11.537872 -18.912933l46.15149 0l-11.537872 18.912933z" fill-rule="nonzero"></path><path fill="#ffffff" d="m162.5015 310.29672l11.537872 -18.912933l46.15149 0l-11.537872 18.912933z" fill-rule="nonzero"></path><path fill="#ffffff" d="m95.47641 333.11365l11.537865 -18.912964l46.15148 0l-11.537872 18.912964z" fill-rule="nonzero"></path><path fill="#ffffff" d="m148.91112 333.11365l11.537872 -18.912964l46.15149 0l-11.537872 18.912964z" fill-rule="nonzero"></path><path fill="#ffffff" d="m79.27902 273.42783l15.025444 -3.176422l3.2265244 -14.792084l3.2265244 14.792084l15.025444 3.176422l-15.025444 3.176422l-3.2265244 14.792084l-3.2265244 -14.792084z" fill-rule="nonzero"></path><path fill="#ffffff" d="m109.0744 251.00682l15.025444 -3.176422l3.2265244 -14.792084l3.2265167 14.792084l15.025452 3.176422l-15.025452 3.1764069l-3.2265167 14.792084l-3.2265244 -14.792084z" fill-rule="nonzero"></path><path fill="#ffffff" d="m63.801956 149.46353l15.025444 -3.1764069l3.2265244 -14.792099l3.2265244 14.792099l15.025444 3.1764069l-15.025444 3.176422l-3.2265244 14.792084l-3.2265244 -14.792084z" fill-rule="nonzero"></path><path fill="#45818e" d="m126.33071 -120.445244l125.29133 0l0 132.37796l-62.64566 33.094486l-62.645668 -33.094486z" fill-rule="nonzero"></path><path fill="#ffd966" d="m286.82025 73.127144l31.917725 -6.7453537l6.8539124 -31.412125l6.853943 31.412125l31.917725 6.7453537l-31.917725 6.7453537l-6.853943 31.412125l-6.8539124 -31.412125z" fill-rule="nonzero"></path><path fill="#000000" fill-opacity="0.0" d="m330.35434 210.65694l0 0c2.5411072 34.705246 -8.067169 67.00719 -29.25592 89.0836l-82.26605 -96.10797z" fill-rule="nonzero"></path><path fill="#000000" fill-opacity="0.0" d="m330.35434 210.65694l0 0c2.5411072 34.705246 -8.067169 67.00719 -29.25592 89.0836" fill-rule="nonzero"></path><path stroke="#ffffff" stroke-width="4.0" stroke-linejoin="round" stroke-linecap="butt" d="m330.35434 210.65694l0 0c2.5411072 34.705246 -8.067169 67.00719 -29.25592 89.0836" fill-rule="nonzero"></path></g></svg>

