<?xml version="1.0" standalone="yes"?>

<svg version="1.1" viewBox="0.0 0.0 377.9527559055118 377.9527559055118" fill="none" stroke="none" stroke-linecap="square" stroke-miterlimit="10" xmlns="http://www.w3.org/2000/svg" xmlns:xlink="http://www.w3.org/1999/xlink"><clipPath id="p.0"><path d="m0 0l377.95276 0l0 377.95276l-377.95276 0l0 -377.95276z" clip-rule="nonzero"></path></clipPath><g clip-path="url(#p.0)"><path fill="#000000" fill-opacity="0.0" d="m0 0l377.95276 0l0 377.95276l-377.95276 0z" fill-rule="nonzero"></path><path fill="#000000" d="m126.331505 51.646755l0 0c0 -3.65588 2.9636765 -6.6195564 6.6195602 -6.6195564l112.05223 0c1.7556152 0 3.4393158 0.6974182 4.680725 1.9388237c1.2414093 1.2414093 1.9388275 2.9251175 1.9388275 4.6807327l0 26.477428c0 3.6558762 -2.963684 6.6195526 -6.6195526 6.6195526l-112.05223 0c-3.6558838 0 -6.6195602 -2.9636765 -6.6195602 -6.6195526z" fill-rule="nonzero"></path><path fill="#e69138" d="m31.03937 218.09024l0 0c0 -87.2262 70.71081 -157.93701 157.93701 -157.93701l0 0c41.887497 0 82.05939 16.639744 111.678314 46.25868c29.618958 29.618942 46.258698 69.79083 46.258698 111.67833l0 0c0 87.2262 -70.710815 157.93701 -157.93701 157.93701l0 0c-87.226204 0 -157.93701 -70.710815 -157.93701 -157.93701z" fill-rule="nonzero"></path><path fill="#ffd966" d="m39.086613 218.0893l0 0c0 -82.78183 67.10794 -149.88977 149.88977 -149.88977l0 0c39.753235 0 77.878296 15.791916 105.98807 43.901695c28.109772 28.10978 43.901703 66.23484 43.901703 105.988075l0 0c0 82.78183 -67.10794 149.88977 -149.88977 149.88977l0 0c-82.78183 0 -149.88977 -67.10794 -149.88977 -149.88977z" fill-rule="nonzero"></path><path fill="#45818e" d="m126.33071 -120.445244l125.29133 0l0 132.37796l-62.64566 33.094486l-62.645668 -33.094486z" fill-rule="nonzero"></path><path fill="#ffffff" d="m148.14182 253.86998c-1.5177002 -15.502518 5.874069 -30.527481 19.081299 -38.785843c13.20723 -8.258362 29.951874 -8.325668 43.225067 -0.17376709c13.273193 8.1519165 20.785522 23.116974 19.392502 38.63118z" fill-rule="nonzero"></path><path fill="#ffffff" d="m229.79799 256.67114c1.5557556 15.498291 -5.7988586 30.540924 -18.985367 38.831482c-13.186508 8.290558 -29.93045 8.399017 -43.22325 0.27996826c-13.292801 -8.119019 -20.84166 -23.065125 -19.486816 -38.582275z" fill-rule="nonzero"></path><path fill="#ffd966" d="m181.88977 242.16798l0 0c0 -3.9138336 3.1727753 -7.086624 7.086609 -7.086624l0 0c1.8794861 0 3.6819916 0.7466278 5.0109863 2.0756226c1.32901 1.3289948 2.0756226 3.1315155 2.0756226 5.0110016l0 0c0 3.9138184 -3.1727753 7.086609 -7.086609 7.086609l0 0c-3.9138336 0 -7.086609 -3.1727905 -7.086609 -7.086609z" fill-rule="nonzero"></path><path fill="#ffd966" d="m168.57742 212.31114l-3.4330597 20.818893l-3.433075 -20.818893z" fill-rule="nonzero"></path><path fill="#ffd966" d="m217.6483 214.26128l-3.433075 20.818893l-3.433075 -20.818893z" fill-rule="nonzero"></path><path fill="#ffffff" d="m155.0973 302.94226l67.75815 0l9.711472 9.711487l0 48.556213l0 0l-87.18109 0l0 0l0 -48.556213z" fill-rule="nonzero"></path><path fill="#ffffff" d="m121.85814 226.73691l0 0c-0.33766174 -1.260788 0.41096497 -2.555481 1.6721115 -2.8918l9.133766 -2.435669l0 0c0.60562134 -0.16149902 1.2508698 -0.0758667 1.7937622 0.23805237c0.54289246 0.31391907 0.93899536 0.8304138 1.1011505 1.4358673l22.682724 84.69414c0.33766174 1.2607727 -0.41098022 2.555481 -1.6721191 2.8917847l-9.133774 2.435669c-1.2611389 0.3363037 -2.5572357 -0.41311646 -2.8948975 -1.6739197z" fill-rule="nonzero"></path><path fill="#ffffff" d="m243.20805 291.9818l0 0c-0.055496216 -1.3046265 0.95713806 -2.4068909 2.2617798 -2.461975l9.44873 -0.3989563l0 0c0.6265106 -0.026428223 1.2379303 0.19708252 1.6997833 0.6213684c0.46185303 0.4242859 0.7362976 1.0146179 0.76293945 1.6411133l1.0274048 24.15747c0.055480957 1.304596 -0.9571533 2.4068604 -2.2617798 2.4619446l-9.44873 0.3989563c-1.3046417 0.05508423 -2.4072266 -0.9578552 -2.4627228 -2.2624817z" fill-rule="nonzero"></path><path fill="#ffffff" d="m252.64517 305.7817l0 0c1.2351227 -0.4260254 2.5818634 0.22982788 3.0080414 1.4649048l3.0865936 8.944794l0 0c0.20465088 0.5930786 0.16531372 1.2431641 -0.109375 1.80719c-0.27468872 0.5640259 -0.76220703 0.9958496 -1.3553467 1.2004395l-43.558746 15.0242c-1.2351074 0.42599487 -2.5818481 -0.2298584 -3.0080414 -1.4649048l-3.0865784 -8.944794c-0.42617798 -1.2350769 0.22958374 -2.5816345 1.4647064 -3.0076294z" fill-rule="nonzero"></path><path fill="#ffffff" d="m106.11024 209.0l0 0c0 -10.845657 8.792137 -19.637802 19.637794 -19.637802l0 0c5.208267 0 10.203217 2.068985 13.886017 5.7517853c3.6828003 3.6828003 5.7517853 8.67775 5.7517853 13.886017l0 0c0 10.845657 -8.792145 19.637802 -19.637802 19.637802l0 0c-10.845657 0 -19.637794 -8.792145 -19.637794 -19.637802z" fill-rule="nonzero"></path><path fill="#ffffff" d="m197.51334 111.67167l38.676605 -9.235382l-26.517883 29.62458l-38.676605 9.235382z" fill-rule="nonzero"></path><path fill="#ffffff" d="m177.0329 151.51761l12.4552765 20.88649l-112.76063 67.21236l-12.455284 -20.886505z" fill-rule="nonzero"></path><path fill="#ffffff" d="m62.87058 219.56544l0 0c6.420635 -3.8271027 14.413799 -2.2539825 17.85323 3.5136719l0 0c1.6516724 2.7697296 2.0108643 6.156082 0.9985504 9.414124c-1.0123062 3.2580261 -3.313202 6.120865 -6.3964996 7.9587097l0 0c-6.4206314 3.8270874 -14.413799 2.2539673 -17.85323 -3.5136871l0 0c-3.4394302 -5.767639 -1.022686 -13.545715 5.397949 -17.372818z" fill-rule="nonzero"></path><path fill="#ffd966" d="m66.464745 223.32066l0 0c3.608986 -2.151184 8.078117 -1.306778 9.982094 1.8860168l0 0c0.91431427 1.5332489 1.1027222 3.4140625 0.52375793 5.2286835c-0.57896423 1.8146362 -1.8778687 3.4144287 -3.610962 4.447464l0 0c-3.608986 2.151184 -8.078117 1.306778 -9.98209 -1.8860321l0 0c-1.9039688 -3.19281 -0.5217819 -7.5249634 3.0872002 -9.676132z" fill-rule="nonzero"></path><path fill="#ffffff" d="m221.98537 152.70929l38.67662 -9.235382l-26.517883 29.624588l-38.676605 9.235382z" fill-rule="nonzero"></path><path fill="#ffffff" d="m236.24161 102.52961l8.52594 14.29731l-68.08188 40.58104l-8.52594 -14.297302z" fill-rule="nonzero"></path><path fill="#ffffff" d="m252.84631 130.35574l7.784546 13.054062l-68.08188 40.58104l-7.784561 -13.054062z" fill-rule="nonzero"></path><path fill="#ffffff" d="m205.05257 136.86465l10.601807 17.778397l-28.570068 17.029541l-10.601822 -17.778397z" fill-rule="nonzero"></path><path fill="#ffffff" d="m165.6798 310.23883l22.551178 -35.212585l22.551178 35.212585z" fill-rule="nonzero"></path><path fill="#ffd966" d="m170.51443 318.5013l0 -15.5590515l17.16536 15.5590515z" fill-rule="nonzero"></path><path fill="#ffd966" d="m205.84776 318.5013l0 -15.5590515l-17.165344 15.5590515z" fill-rule="nonzero"></path><path fill="#ffffff" d="m235.81627 278.00787l0 0c0 -8.279907 6.712204 -14.992126 14.992126 -14.992126l0 0c3.9761658 0 7.7894745 1.5795288 10.601028 4.391083c2.8115845 2.8115845 4.3911133 6.624878 4.3911133 10.601044l0 0c0 8.279938 -6.712219 14.992126 -14.992142 14.992126l0 0c-8.2799225 0 -14.992126 -6.7121887 -14.992126 -14.992126z" fill-rule="nonzero"></path><path fill="#ffd966" d="m286.82025 73.127144l31.917725 -6.7453537l6.8539124 -31.412125l6.853943 31.412125l31.917725 6.7453537l-31.917725 6.7453537l-6.853943 31.412125l-6.8539124 -31.412125z" fill-rule="nonzero"></path><path fill="#000000" fill-opacity="0.0" d="m330.35434 210.65694l0 0c2.5411072 34.705246 -8.067169 67.00719 -29.25592 89.0836l-82.26605 -96.10797z" fill-rule="nonzero"></path><path fill="#000000" fill-opacity="0.0" d="m330.35434 210.65694l0 0c2.5411072 34.705246 -8.067169 67.00719 -29.25592 89.0836" fill-rule="nonzero"></path><path stroke="#ffffff" stroke-width="4.0" stroke-linejoin="round" stroke-linecap="butt" d="m330.35434 210.65694l0 0c2.5411072 34.705246 -8.067169 67.00719 -29.25592 89.0836" fill-rule="nonzero"></path></g></svg>

