<?xml version="1.0" encoding="iso-8859-1"?>
<!-- Generator: Adobe Illustrator 19.0.0, SVG Export Plug-In . SVG Version: 6.00 Build 0)  -->
<svg version="1.1" id="Layer_1" xmlns="http://www.w3.org/2000/svg" xmlns:xlink="http://www.w3.org/1999/xlink" x="0px" y="0px"
	 viewBox="0 0 405.96 405.96" style="enable-background:new 0 0 405.96 405.96;" xml:space="preserve">
<g>
	<g>
		<path style="fill:#EF806F;" d="M302.005,161.02c26.8,25.9,43.47,62.23,43.47,102.45c0,78.69-63.8,142.49-142.49,142.49
			c-78.7,0-142.5-63.8-142.5-142.49c0-40.22,16.67-76.55,43.47-102.45c10.34-10.01,22.19-18.46,35.18-24.98
			c19.2-9.64,40.89-15.07,63.85-15.07c22.95,0,44.63,5.43,63.83,15.07C279.805,142.56,291.665,151.01,302.005,161.02z"/>
		<path style="fill:#B3B3B3;" d="M302.005,99.03v61.99c-10.34-10.01-22.2-18.46-35.19-24.98V99.03c0-17.06-6.63-33.09-18.7-45.14
			c-12.05-12.07-28.07-18.71-45.14-18.71c-35.2,0-63.84,28.64-63.84,63.85v37.01c-12.99,6.52-24.84,14.97-35.18,24.98V99.03
			c0-54.6,44.42-99.03,99.02-99.03c26.47,0,51.34,10.31,70.03,29.01C291.715,47.72,302.005,72.58,302.005,99.03z"/>
	</g>
	<path style="fill:#FFFFFF;" d="M230.162,304.774l-13.277-35.253c7.109-4.577,11.822-12.555,11.822-21.639
		c0-14.207-11.517-25.725-25.725-25.725s-25.725,11.517-25.725,25.725c0,9.084,4.713,17.062,11.822,21.639l-13.277,35.253H230.162z"
		/>
</g>
<g>
</g>
<g>
</g>
<g>
</g>
<g>
</g>
<g>
</g>
<g>
</g>
<g>
</g>
<g>
</g>
<g>
</g>
<g>
</g>
<g>
</g>
<g>
</g>
<g>
</g>
<g>
</g>
<g>
</g>
</svg>
