<?xml version="1.0" standalone="yes"?>

<svg version="1.1" viewBox="0.0 0.0 188.9763779527559 188.9763779527559" fill="none" stroke="none" stroke-linecap="square" stroke-miterlimit="10" xmlns="http://www.w3.org/2000/svg" xmlns:xlink="http://www.w3.org/1999/xlink"><clipPath id="p.0"><path d="m0 0l188.97638 0l0 188.97638l-188.97638 0l0 -188.97638z" clip-rule="nonzero"></path></clipPath><g clip-path="url(#p.0)"><path fill="#000000" fill-opacity="0.0" d="m0 0l188.97638 0l0 188.97638l-188.97638 0z" fill-rule="nonzero"></path><path fill="#3c78d8" d="m4.335958 34.47829l0 0c0 -16.55148 13.4176235 -29.969105 29.969103 -29.969105l120.18778 0l0 0c7.948303 0 15.57106 3.1574502 21.191345 8.777748c5.6203003 5.6202965 8.777756 13.243055 8.777756 21.191357l0 119.87282c0 16.551483 -13.417633 29.9691 -29.9691 29.9691l-120.18778 0c-16.55148 0 -29.969103 -13.417618 -29.969103 -29.9691z" fill-rule="nonzero"></path><path stroke="#000000" stroke-width="8.0" stroke-linejoin="round" stroke-linecap="butt" d="m4.335958 34.47829l0 0c0 -16.55148 13.4176235 -29.969105 29.969103 -29.969105l120.18778 0l0 0c7.948303 0 15.57106 3.1574502 21.191345 8.777748c5.6203003 5.6202965 8.777756 13.243055 8.777756 21.191357l0 119.87282c0 16.551483 -13.417633 29.9691 -29.9691 29.9691l-120.18778 0c-16.55148 0 -29.969103 -13.417618 -29.969103 -29.9691z" fill-rule="nonzero"></path><path fill="#000000" d="m58.299213 112.38845l69.3622 0l-13.872437 59.69816l-41.617325 0z" fill-rule="nonzero"></path><path fill="#000000" d="m127.6601 68.06956l-69.3622 0l13.87244 -63.561684l41.617325 0z" fill-rule="nonzero"></path><path fill="#ff0000" d="m128.63518 74.39115l0 0c0 -2.1164093 1.715683 -3.8321 3.8320923 -3.8321l17.879105 0c1.0163422 0 1.9910431 0.40373993 2.7097015 1.1223984c0.71865845 0.71865845 1.122406 1.693367 1.122406 2.7097015l0 15.327934c0 2.1164093 -1.7156982 3.8320923 -3.8321075 3.8320923l-17.879105 0l0 0c-2.1164093 0 -3.8320923 -1.715683 -3.8320923 -3.8320923z" fill-rule="nonzero"></path><path fill="#ff0000" d="m45.30971 82.055115l0 0c0 -26.327019 21.342266 -47.66929 47.669292 -47.66929l0 0c12.642677 0 24.767555 5.0222855 33.707275 13.962013c8.939728 8.939724 13.962021 21.064598 13.962021 33.707275l0 0c0 26.327026 -21.342278 47.669296 -47.669296 47.669296l0 0c-26.327026 0 -47.669292 -21.34227 -47.669292 -47.669296z" fill-rule="nonzero"></path><path stroke="#3c78d8" stroke-width="8.0" stroke-linejoin="round" stroke-linecap="butt" d="m45.30971 82.055115l0 0c0 -26.327019 21.342266 -47.66929 47.669292 -47.66929l0 0c12.642677 0 24.767555 5.0222855 33.707275 13.962013c8.939728 8.939724 13.962021 21.064598 13.962021 33.707275l0 0c0 26.327026 -21.342278 47.669296 -47.669296 47.669296l0 0c-26.327026 0 -47.669292 -21.34227 -47.669292 -47.669296z" fill-rule="nonzero"></path><path fill="#3c78d8" d="m62.0828 82.055115l0 0c0 -17.064293 13.8333435 -30.897633 30.897636 -30.897633l0 0c8.194565 0 16.053497 3.2552757 21.84793 9.0497055c5.7944336 5.79443 9.0497055 13.65337 9.0497055 21.847927l0 0c0 17.0643 -13.8333435 30.897644 -30.897636 30.897644l0 0c-17.064293 0 -30.897636 -13.8333435 -30.897636 -30.897644z" fill-rule="nonzero"></path><path fill="#000000" fill-opacity="0.0" d="m92.98044 51.157482l0.4409485 30.960629" fill-rule="nonzero"></path><path stroke="#000000" stroke-width="8.0" stroke-linejoin="round" stroke-linecap="butt" d="m92.98044 51.157482l0.4409485 30.960629" fill-rule="nonzero"></path><path fill="#000000" fill-opacity="0.0" d="m94.71391 78.66404l-15.685043 17.196854" fill-rule="nonzero"></path><path stroke="#000000" stroke-width="8.0" stroke-linejoin="round" stroke-linecap="butt" d="m94.71391 78.66404l-15.685043 17.196854" fill-rule="nonzero"></path><path fill="#ffffff" d="m21.965868 35.081676l8.20767 0l0 -8.763187l7.7264137 0l0 8.763187l8.207672 0l0 7.72641l-8.207672 0l0 8.763187l-7.7264137 0l0 -8.763187l-8.20767 0z" fill-rule="nonzero"></path></g></svg>

